<?xml version="1.0" encoding="utf-8"?>
<svg viewBox="0 0 500 500" xmlns="http://www.w3.org/2000/svg" xmlns:xlink="http://www.w3.org/1999/xlink" xmlns:bx="https://boxy-svg.com">
  <defs>
    <linearGradient gradientUnits="userSpaceOnUse" x1="104.741" y1="-3.664" x2="104.741" y2="162.692" id="gradient-0" gradientTransform="matrix(0.898238, 0.439511, -0.22963, 0.469299, 11.51515, 24.176893)">
      <stop offset="0" style="stop-color: rgba(255, 155, 33, 1)"/>
      <stop offset="1" style="stop-color: rgba(186, 102, 0, 1)"/>
    </linearGradient>
    <linearGradient gradientUnits="userSpaceOnUse" x1="181.322" y1="7.664" x2="181.322" y2="126.441" id="gradient-1" gradientTransform="matrix(0.639416, -0.768863, 0.36988, 0.307606, 75.241839, 231.377761)">
      <stop offset="0" style="stop-color: rgba(232, 118, 19, 1)"/>
      <stop offset="1" style="stop-color: rgba(138, 70, 11, 1)"/>
    </linearGradient>
    <radialGradient gradientUnits="userSpaceOnUse" cx="105.744" cy="145.634" r="74.046" id="gradient-2" gradientTransform="matrix(3.507115, -2.370985, 0.844303, 1.248876, -400.318991, 225.055898)">
      <stop offset="0" style="stop-color: rgba(43, 68, 255, 1)"/>
      <stop offset="1" style="stop-color: rgba(0, 23, 196, 1)"/>
    </radialGradient>
    <linearGradient id="linear-gradient" x1="135.37" y1="224.24" x2="260.18" y2="224.24" gradientUnits="userSpaceOnUse" gradientTransform="matrix(1, 0, 0, 1, 71.995995, 10.330986)">
      <stop offset="0" stop-color="#cd94ef"/>
      <stop offset="1" stop-color="#7a5bf5"/>
    </linearGradient>
    <linearGradient id="linear-gradient-5" x1="212.1" y1="394.43" x2="188.01" y2="394.43" gradientTransform="matrix(0.030288, 0, 0, 0.032151, 44.036319, 6.286184)" xlink:href="#linear-gradient"/>
    <linearGradient id="linear-gradient-6" x1="296.89" y1="216.41" x2="389.96" y2="216.41" gradientTransform="matrix(0.030288, 0, -0.000371, 0.032151, 429.608332, 247.686385)" xlink:href="#linear-gradient"/>
    <linearGradient id="linear-gradient-7" x1="226.28" y1="129.55" x2="203.62" y2="175.6" gradientTransform="matrix(0.019559, 0.024295, -0.02313, 0.021059, 437.614894, 251.558135)" gradientUnits="userSpaceOnUse">
      <stop offset="0" stop-color="#fff" stop-opacity="0"/>
      <stop offset="1" stop-color="#fff"/>
    </linearGradient>
    <linearGradient gradientUnits="userSpaceOnUse" x1="492.386" y1="62" x2="492.386" y2="85.144" id="gradient-3" gradientTransform="matrix(0.082149, -0.125191, 0.135132, 0.08867, 391.320031, 319.182666)">
      <stop offset="0" style="stop-color: rgba(255, 167, 78, 0.72)"/>
      <stop offset="1" style="stop-color: rgba(231, 116, 0, 0.72)"/>
    </linearGradient>
    <linearGradient gradientUnits="userSpaceOnUse" x1="436.448" y1="63.494" x2="436.448" y2="86.642" id="gradient-4" gradientTransform="matrix(0.052719, 0.14015, -0.171143, 0.064378, 424.005946, 198.122463)">
      <stop offset="0" style="stop-color: rgba(255, 167, 78, 0.72)"/>
      <stop offset="1" style="stop-color: rgba(231, 116, 0, 0.72)"/>
    </linearGradient>
    <linearGradient id="gradient-5" x1="893" y1="636.5" x2="1268" y2="636.5" gradientUnits="userSpaceOnUse">
      <stop offset="0" stop-color="#4b46bd"/>
      <stop offset="1" stop-color="#5cd4ee"/>
    </linearGradient>
    <linearGradient id="linear-gradient-2" x1="906.28" y1="682.21" x2="1289.46" y2="682.21" gradientUnits="userSpaceOnUse">
      <stop offset="0" stop-color="#f71f68"/>
      <stop offset="1" stop-color="#f9c448"/>
    </linearGradient>
    <linearGradient id="gradient-12" x1="323.18" y1="357.47" x2="339.97" y2="357.47" gradientTransform="matrix(0.111904, 0.008827, -0.008827, 0.111904, 3.269881, -2.801795)" gradientUnits="userSpaceOnUse">
      <stop offset="0" stop-color="#cd94ef"/>
      <stop offset="1" stop-color="#7a5bf5"/>
    </linearGradient>
    <linearGradient id="linear-gradient-1" x1="371.01" y1="361.11" x2="387.81" y2="361.11" gradientTransform="matrix(0.071841, 0.00898, -0.005613, 0.112252, 11.657294, -2.784957)" xlink:href="#gradient-12"/>
    <linearGradient id="linear-gradient-3" x1="371.56" y1="368.02" x2="388.35" y2="368.02" gradientTransform="matrix(0.071841, 0.00898, -0.005613, 0.112252, 11.717916, -2.787202)" xlink:href="#gradient-12"/>
    <linearGradient id="linear-gradient-4" x1="326.83" y1="387.24" x2="343.62" y2="387.24" gradientTransform="matrix(0.111904, 0.008827, -0.008827, 0.111904, 3.533673, -2.824244)" xlink:href="#gradient-12"/>
    <linearGradient id="linear-gradient-19" x1="371.95" y1="375.62" x2="388.75" y2="375.62" gradientTransform="matrix(0.071841, 0.00898, -0.005613, 0.112252, 11.785259, -2.788324)" xlink:href="#gradient-12"/>
    <linearGradient id="linear-gradient-20" x1="375.15" y1="391.21" x2="391.95" y2="391.21" gradientTransform="matrix(0.071841, 0.00898, -0.005613, 0.112252, 11.924463, -2.805162)" xlink:href="#gradient-12"/>
    <linearGradient id="linear-gradient-21" x1="375.92" y1="399.69" x2="392.71" y2="399.69" gradientTransform="matrix(0.071841, 0.00898, -0.005613, 0.112252, 11.999665, -2.808529)" xlink:href="#gradient-12"/>
    <linearGradient id="linear-gradient-8" x1="329.78" y1="418.74" x2="346.57" y2="418.74" gradientTransform="matrix(0.111904, 0.008827, -0.008827, 0.111904, 3.813178, -2.838837)" xlink:href="#gradient-12"/>
    <linearGradient id="linear-gradient-9" x1="376.9" y1="407.25" x2="393.69" y2="407.25" gradientTransform="matrix(0.071841, 0.00898, -0.005613, 0.112252, 12.067002, -2.813019)" xlink:href="#gradient-12"/>
    <linearGradient id="linear-gradient-10" x1="378.4" y1="428.91" x2="395.2" y2="428.91" gradientTransform="matrix(0.071841, 0.00898, -0.005613, 0.112252, 12.257837, -2.819755)" xlink:href="#gradient-12"/>
    <linearGradient id="linear-gradient-11" x1="378.11" y1="435.81" x2="394.9" y2="435.81" gradientTransform="matrix(0.071841, 0.00898, -0.005613, 0.112252, 12.31846, -2.81751)" xlink:href="#gradient-12"/>
    <linearGradient id="linear-gradient-12" x1="378.02" y1="421.55" x2="394.82" y2="421.55" gradientTransform="matrix(0.071841, 0.00898, -0.005613, 0.112252, 12.192723, -2.818633)" xlink:href="#gradient-12"/>
    <linearGradient id="linear-gradient-13" x1="283.76" y1="526.6" x2="406.03" y2="526.6" gradientTransform="matrix(0.112252, 0, 0, 0.112252, 366.893372, 197.814575)" xlink:href="#gradient-12"/>
    <linearGradient id="linear-gradient-14" x1="0" y1="114.24" x2="48.86" y2="114.24" gradientTransform="matrix(0.112252, 0, 0, 0.112252, 397.662598, 228.93515)" xlink:href="#gradient-12"/>
    <linearGradient id="linear-gradient-15" x1="0" y1="40.03" x2="4.61" y2="40.03" gradientTransform="matrix(0.112252, 0, 0, 0.112252, 397.662598, 228.93515)" xlink:href="#gradient-12"/>
    <linearGradient id="linear-gradient-16" x1="96.9" y1="118.91" x2="130.19" y2="120.33" gradientTransform="matrix(0.112252, 0, 0, 0.112252, 397.662598, 228.93515)" xlink:href="#gradient-12"/>
    <linearGradient id="linear-gradient-17" x1="378.33" y1="309.67" x2="427.76" y2="309.67" gradientTransform="matrix(0.112868, 0, 0, 0.112868, 366.305939, 199.352066)" xlink:href="#gradient-12"/>
    <linearGradient id="linear-gradient-18" x1="386.51" y1="307.63" x2="410.13" y2="307.63" gradientTransform="matrix(0.071619, 0.009405, -0.009405, 0.071619, 386.227203, 208.901352)" gradientUnits="userSpaceOnUse">
      <stop offset="0" stop-color="#fff"/>
      <stop offset="1" stop-color="#fff" stop-opacity="0"/>
    </linearGradient>
  </defs>
  <title>humaaans/standing-23</title>
  <desc>Created with Sketch.</desc>
  <g id="humaaans/standing-23" stroke="none" stroke-width="1" fill="none" fill-rule="evenodd" transform="matrix(1, 0, 0, 1, -61.001389, 1.843053)">
    <g id="humaaan-8" transform="translate(34.000000, 18.000000)">
      <g id="Head/Front/Curly" transform="translate(85.439497, 0.000000)">
        <g id="Head" stroke-width="1" transform="translate(56.316359, 32.329762)" fill="#B28B67"/>
      </g>
      <g id="Bottom/Standing/Skinny-Jeans-Walk" transform="translate(0.000000, 194.763541)">
        <g id="Accessories/Shoe/Flat-Pointy" transform="translate(58.923598, 197.107258) rotate(50.000000) translate(-58.923598, -197.107258) translate(27.115284, 176.249347)" fill="#191847"/>
        <g id="Accessories/Shoe/Flat-Pointy" transform="translate(216.922274, 207.536214)" fill="#191847"/>
      </g>
      <g id="Body/Hoodie" transform="translate(22.922792, 85.404334)">
        <title>humaaans/standing-23</title>
        <desc>Created with Sketch.</desc>
        <g id="g-8" stroke="none" stroke-width="1" fill="none" fill-rule="evenodd" transform="matrix(1, 0, 0, 1, -41.642654, -99.159853)">
          <g id="g-9" transform="translate(34.000000, 18.000000)">
            <g id="g-10" transform="translate(85.439497, 0.000000)">
              <g id="g-11" stroke-width="1" transform="translate(56.316359, 32.329762)" fill="#B28B67">
                <path d="M8.61668863,35.9695996 C3.8111203,30.3288374 0.558611141,23.4160055 1.10210733,15.6699789 C2.66807119,-6.64848056 33.7361385,-1.73870383 39.7795208,9.52573796 C45.8229031,20.7901798 45.1047922,49.3633705 37.294259,51.3766405 C34.1794292,52.1795298 27.5439155,50.2127726 20.7905107,46.1421897 L25.0294931,76.1313749 L0,76.1313749 L8.61668863,35.9695996 Z" style="fill: rgb(215, 181, 149);"/>
              </g>
              <path d="M107.18432,26.2397085 C106.666011,24.4178338 105.271891,22.8579294 103.393081,22.3951495 C102.937473,22.2828961 102.466945,22.2375565 101.998137,22.2564594 C101.829973,22.2631713 101.782811,22.3116615 101.704229,22.194066 C101.645929,22.1068795 101.644622,21.8938789 101.620628,21.7914194 C101.545966,21.4728088 101.452603,21.1581705 101.337377,20.8516825 C100.944262,19.8063356 100.28364,18.8811868 99.4872363,18.1018509 C97.9976224,16.6438581 95.984887,15.6376184 93.8937763,15.4555747 C92.7492892,15.3559918 91.6131209,15.5419393 90.5311278,15.9142452 C89.9709499,16.1069732 89.4277534,16.3469585 88.8987194,16.6122847 C88.7394249,16.6921428 88.2226284,17.0832832 88.0627839,17.0579423 C87.886233,17.0299988 87.5314124,16.5912586 87.3878617,16.4811283 C85.6134838,15.1197734 83.4223413,14.5845322 81.2122237,14.6009011 C78.7176172,14.6193246 76.3154798,14.7439745 74.2349567,16.2647032 C73.7945419,16.5866698 73.375096,16.9391825 72.9757252,17.3103241 C72.7654179,17.5057231 72.5617106,17.7084504 72.3674221,17.9196018 C72.2502027,18.0469913 72.1360771,18.1772573 72.0262141,18.3110162 C71.8397631,18.5380571 71.8696695,18.6126416 71.6086932,18.4542266 C70.607413,17.8459077 69.4471133,17.5614046 68.2784261,17.7050259 C67.58446,17.7903632 66.9092628,17.9987066 66.2681658,18.2729364 C66.0498834,18.3662868 65.544637,18.7386612 65.3119859,18.7422912 C65.0811909,18.7458526 64.5830259,18.4006683 64.3452871,18.3129339 C63.0612368,17.8389218 61.6772234,17.7220797 60.3275853,17.9411074 C58.9353906,18.1671209 57.5678086,18.7225663 56.3882588,19.490122 C55.8209309,19.859346 55.3259283,20.2684305 54.9283451,20.817438 C54.7566754,21.0544783 54.6015059,21.3052163 54.4069424,21.5249974 C54.293023,21.6536881 54.0674531,21.7857348 54.0063341,21.9486016 C54.0429093,21.8510733 52.4837888,21.2500142 52.336663,21.2115919 C51.5528402,21.0068784 50.7547174,21.0483827 49.9871884,21.30097 C48.5439123,21.7759409 47.3026934,22.8410811 46.2825757,23.9331375 C45.7586292,24.494062 45.3001331,25.1140925 44.9109374,25.7746685 C44.7244177,26.0910875 44.5538481,26.416547 44.3977848,26.7489239 C44.3221594,26.9099414 44.2720404,27.1113674 44.1724211,27.256427 C44.0439954,27.4433334 43.9577137,27.4468948 43.7251313,27.5283967 C42.5439315,27.9422069 41.4671635,28.6426435 40.647178,29.5890923 C39.8177737,30.5466364 39.279596,31.7258107 39.0539573,32.967584 C39.0406885,33.0407302 39.0327822,33.3438623 38.9899508,33.3834489 C38.9312379,33.4379661 38.6937055,33.413858 38.6038488,33.4244053 C38.2926847,33.4609099 37.9837206,33.5152216 37.6788815,33.587409 C37.1169161,33.7204146 36.5699383,33.916156 36.0525232,34.1721677 C34.0355253,35.1701203 32.5931429,37.041033 31.8872143,39.1462465 C31.146498,41.3555632 31.1596293,43.8867095 32.0449276,46.0547958 C32.1879283,46.4049799 32.3580855,46.7448905 32.5579427,47.0664462 C32.6806621,47.2638313 32.7202623,47.2643108 32.6405807,47.4714214 C32.5517552,47.7018182 32.3895044,47.9257086 32.2840413,48.1508318 C31.9399458,48.8855128 31.6993883,49.6647116 31.5474501,50.4605533 C31.2981613,51.7660213 31.1746169,53.1379235 31.4205369,54.4533224 C31.5347312,55.0641069 31.7336948,55.6611936 32.0372276,56.2052013 C32.1919846,56.4825816 32.373073,56.7456477 32.5775366,56.9889889 C32.6836871,57.115351 32.7964377,57.2360286 32.9143446,57.3516379 C32.9817887,57.4176613 33.0702016,57.475466 33.1275394,57.5492286 C33.2675151,57.7290806 33.2969403,57.5812129 33.2247524,57.8453063 C33.1238269,58.2145303 32.8950257,58.578823 32.7549125,58.9381161 C32.6105368,59.3083674 32.4800486,59.6836868 32.360698,60.0627047 C32.1189717,60.8301919 31.9145769,61.6115824 31.78677,62.4063967 C31.5413313,63.9323991 31.5844377,65.5583954 32.3062477,66.958926 C32.614868,67.5579989 33.0576203,68.0835146 33.5946293,68.4923252 C33.8574619,68.692313 34.1421571,68.8646997 34.4408087,69.0062663 C34.5942594,69.0791386 34.7901979,69.1103695 34.8601858,69.2587851 C34.9355362,69.4183644 34.8236794,69.7352628 34.798173,69.9136765 C34.5762468,71.4657732 34.46494,73.0953994 34.9263236,74.6164021 C35.3512696,76.0173436 36.2868931,77.2542541 37.5016431,78.0731766 C39.858199,79.6617779 43.0347403,79.5721943 45.510853,78.3004229 C46.1562813,77.9688679 46.7601156,77.5572493 47.2987746,77.0717311 C48.6704129,78.9181933 51.4929587,78.8597722 53.4976502,78.3336401 C55.995213,77.6782008 57.9992858,75.9415263 59.153948,73.6597483 C60.7327999,75.5817539 64.0462919,74.9581619 65.1411412,72.8730842 C65.4091301,72.362773 65.5680809,71.8003417 65.6463188,71.2311985 C65.6875003,70.9319018 65.6612376,70.6300025 65.6921753,70.3331028 C65.731638,69.9547699 65.9843643,69.5871212 66.1296338,69.2211162 C66.4125415,68.5088311 66.5881987,67.7730542 66.5957612,67.0047451 C66.59968,66.6036053 66.5488735,66.2126704 66.510717,65.8147495 C66.4764106,65.4565523 66.5757548,65.1228056 66.6321989,64.7692657 C65.9916518,64.8747386 65.2112666,64.7020095 64.607776,64.5162675 C64.0155604,64.3340183 63.4608826,63.8539793 63.0428805,63.4155815 C62.0723317,62.3975616 61.4794287,61.0630544 61.0739391,59.7348481 C60.1838283,56.8196842 60.5486864,53.3221588 63.4808202,51.7222568 C64.8467522,50.97696 68.9389121,50.9794047 70.5657976,51.3477557 C72.2763966,51.7350608 74.2156378,55.509559 74.3110633,55.8643318 C74.3701198,56.0839074 74.3404197,56.3556716 74.5421332,56.501964 C74.9854355,56.8236566 75.7165268,56.2654031 76.0435034,55.989872 C76.6077376,55.5143532 77.0102021,54.8816523 77.3587664,54.2403217 C78.1182516,52.843147 78.7305422,51.3448142 79.1630507,49.8152504 C79.4964899,48.6360075 79.7096848,47.4199862 80.1454932,46.27081 C80.5791705,45.1273184 81.262824,44.1052577 82.3257732,43.4574892 C83.4820854,42.7528064 84.8075234,42.3816647 86.0769299,41.9388151 C87.3351989,41.4999379 88.5717427,40.9635324 89.547104,40.0322881 C89.7615363,39.8275061 89.9698499,39.6099167 90.1424821,39.3688356 C90.2787453,39.1785048 90.4134272,38.8141436 90.6210533,38.693466 C90.9438362,38.5057378 91.4149136,38.9939271 91.69404,39.1711765 C93.0711096,40.0457804 94.2199967,41.2655687 95.146614,42.5980898 C96.068075,43.9233511 96.8241777,45.1985469 97.4385996,46.6783878 C97.8943457,47.7759233 98.1787795,49.1815221 98.9803399,50.0809875 C99.3381855,50.4826067 101.998137,50.7255754 102.859716,50.3749421 C103.721295,50.0243088 104.686894,49.113855 104.976058,48.5432735 C105.272097,47.9592682 105.342841,47.3177321 105.216341,46.6783878 C105.141953,46.3022464 104.990015,45.9508981 104.906895,45.5814687 C104.836907,45.2711452 104.773382,44.977807 104.622338,44.6935094 C104.336061,44.1547753 103.846971,43.7675387 103.257162,43.6056308 C103.870965,43.0397066 104.37958,42.3626933 104.731513,41.6058903 C105.097196,40.8196371 105.407123,39.8634628 105.495055,39.000502 C105.566555,38.2995861 105.456211,37.5733977 105.072515,36.9710373 C104.669982,36.3391582 103.956903,35.9269232 103.339937,35.5327693 C104.282367,34.7954172 105.088946,33.8986913 105.752043,32.9058754 C107.041594,30.9751718 107.839235,28.5414853 107.18432,26.2397085 Z" id="hair" fill="#191847"/>
            </g>
            <g id="g-12" transform="translate(0.000000, 194.763541)">
              <polygon id="Leg" fill="#1F28CF" points="133.49063110351562 0 187.02999877929688 132.6840057373047 211.99099731445312 230.47999572753906 238.8230743408203 230.47991943359375 190.50958251953125 1.0235364530757074e-13"/>
              <path d="M 121.098 0 C 120.552 45.527 120.947 106.821 119.677 109.659 C 118.83 111.551 92.495 133.107 40.673 174.328 L 55.247 196.986 C 116.772 157.31 144.863 129.736 148.009 124.449 C 152.727 116.52 176.431 43.555 188.764 0 L 121.098 0 Z" id="Leg" style="fill: url(#gradient-2);"/>
              <g id="g-13" transform="translate(58.923598, 197.107258) rotate(50.000000) translate(-58.923598, -197.107258) translate(27.115284, 176.249347)" fill="#191847">
                <path d="M 1.409 41.593 L 2.452 19.692 L 29.996 22.211 C 40.381 29.511 48.295 32.902 65.026 37.421 L 65.026 41.593 L 25.396 41.593 L 11.838 39.507 L 11.838 41.593 L 1.409 41.593 Z" id="Shoe"/>
              </g>
              <g id="g-13" transform="translate(216.922274, 207.536214)" fill="#191847">
                <path d="M 0 41.716 L -5.749 19.815 L 21.246 19.815 C 31.63 27.115 46.886 33.025 63.617 37.544 L 63.617 41.716 L 23.987 41.716 L 10.429 39.63 L 10.429 41.716 L 0 41.716 Z" id="Shoe"/>
              </g>
            </g>
            <g id="g-14" transform="translate(22.922792, 85.404334)">
              <path d="M198.964869,96.1669474 L232.231433,120.595314 C241.254011,123.029931 248.792082,126.059006 254.845649,129.682538 C256.275606,130.985537 258.003844,133.624326 252.073465,133.168278 C246.143085,132.712229 239.884706,132.499245 239.066429,134.522006 C238.248152,136.544766 241.836896,138.963766 240.182801,141.693 C239.080072,143.512489 233.870334,138.950187 224.553589,128.006095 L191.610963,114.34562 L198.964869,96.1669474 Z M71.2380339,97.0100305 L93.0318307,97.0957353 C79.5751668,140.53616 72.3105679,163.585377 71.2380339,166.243387 C68.8248325,172.223909 73.9314912,181.33214 76.1153011,186.226836 C69.002705,189.409511 69.7605597,177.622767 60.788211,181.797022 C52.5986673,185.607089 46.3689017,192.510675 36.9070672,186.672433 C35.7437902,185.954655 34.4690282,183.252093 37.5490144,181.140184 C45.2223833,175.878647 56.2801726,166.67001 57.7742541,163.638916 C59.8117011,159.505478 64.2996277,137.295849 71.2380339,97.0100305 Z" id="Skin" style="fill: rgb(215, 181, 149);"/>
              <path d="M127.996379,9.99126343 L136.845297,7.66438547 C172.696724,33.5424787 191.22711,87.6619834 234.647976,113.391279 L225.880465,126.441219 C154.233028,123.866416 130.7617,57.9296166 127.996379,9.99126343 Z" id="Coat-Back" transform="translate(181.322177, 67.052802) rotate(5.000000) translate(-181.322177, -67.052802) " style="fill: url(#gradient-1);"/>
              <path d="M93.8605991,118.890092 C130.019619,118.890092 156.617436,118.890092 173.65405,118.890092 C177.300204,118.890092 176.613156,113.625177 176.086082,110.968472 C170.003016,80.3068849 146.257032,47.2551777 146.257032,3.60918021 L123.240844,0 C104.2035,30.6177517 97.6200564,68.3144034 93.8605991,118.890092 Z" id="Shirt" style="fill: rgb(203, 210, 217);"/>
              <path d="M94.5018144,30.0958364 C91.159002,29.1349436 88.5118406,26.8938416 86.5603303,23.3725304 C78.1478728,8.19306644 81.186005,-0.164352814 90.176254,-2.91148372 C99.1665031,-5.65861462 107.183923,-2.17603713e-14 121.507793,-7.54951657e-15 C122.286892,-6.66133815e-15 123.000459,0.0488414414 123.648494,0.146524324 L130.853759,0.557677906 C151.526451,70.6198746 157.227856,117.364282 147.957974,140.790899 L85.1543132,140.790899 C81.433263,149.467655 77.8725321,156.767924 74.4721203,162.691705 L57.359255,162.691705 C55.7486939,110.616897 68.1295471,66.4182737 94.5018144,30.0958364 Z" id="Coat-Front" style="fill: url(#gradient-0); fill-rule: nonzero;"/>
              <path d="M98.8302349,104.808535 C100.805398,121.334664 104.015698,133.328785 108.461137,140.790899 L85.1543132,140.790899 C89.4948142,130.669705 94.0534546,118.675583 98.8302345,104.808534 Z" id="Shade" fill-opacity="0.1" fill="#000000"/>
            </g>
          </g>
        </g>
      </g>
    </g>
  </g>
  <title>humaaans/standing-23</title>
  <desc>Created with Sketch.</desc>
  <g id="g-1" stroke="none" stroke-width="1" fill="none" fill-rule="evenodd" transform="matrix(1, 0, 0, 1, 83.580957, 6.087536)">
    <g id="g-2" transform="translate(34.000000, 18.000000)">
      <g id="g-3" transform="translate(85.439497, 0.000000)">
        <g id="g-4" stroke-width="1" transform="translate(56.316359, 32.329762)" fill="#B28B67"/>
      </g>
      <g id="g-5" transform="translate(0.000000, 194.763541)">
        <g id="g-6" transform="translate(58.923598, 197.107258) rotate(50.000000) translate(-58.923598, -197.107258) translate(27.115284, 176.249347)" fill="#191847"/>
        <g id="g-6" transform="translate(216.922274, 207.536214)" fill="#191847"/>
      </g>
      <g id="g-7" transform="translate(22.922792, 85.404334)"/>
    </g>
  </g>
  <title>rocket</title>
  <path class="cls-1" d="M 436.785 254.878 C 436.785 254.878 434.365 256.299 434.866 266.752 L 440.602 266.752 C 440.602 266.752 441.093 257.805 438.646 254.878 Z" style="fill: rgb(231, 250, 255);" transform="matrix(0.999182, 0.040451, -0.040451, 0.999182, 10.889758, -17.493346)" bx:origin="0.501 0.461"/>
  <polygon class="cls-1" points="435.735 267.866 435.727 268.525 435.514 268.525 435.507 269.046 435.002 269.046 434.999 269.293 439.73 269.293 439.734 269.001 439.179 269.001 439.186 268.578 438.941 268.578 438.949 267.866 435.735 267.866" style="fill: rgb(249, 249, 249);" transform="matrix(0.999182, 0.040451, -0.040451, 0.999182, 10.936887, -17.471911)" bx:origin="0.469 -4.442"/>
  <circle class="cls-2" cx="269.766" cy="234.571" r="62.41" style="fill: url(#linear-gradient);" transform="matrix(0.030264, 0.001225, -0.001672, 0.03211, 429.949982, 252.474487)" bx:origin="0.544 0.484"/>
  <circle class="cls-3" cx="269.766" cy="235.921" r="51.72" style="fill: rgb(255, 255, 255);" transform="matrix(0.030264, 0.001225, -0.001672, 0.03211, 429.949982, 252.474487)" bx:origin="0.553 0.468"/>
  <circle class="cls-4" cx="270.286" cy="235.921" r="37.22" style="fill: rgba(255, 166, 78, 0.72);" transform="matrix(0.030264, 0.001225, -0.001672, 0.03211, 429.949982, 252.474487)" bx:origin="0.567 0.456"/>
  <path class="cls-5" d="M 435.226 265.83 L 432.297 265.83 C 432.145 265.83 432.001 265.76 431.902 265.637 C 431.694 265.372 431.466 264.86 432.111 264.266 C 433.057 263.4 435.125 262.364 435.125 262.364 Z" style="fill-rule: evenodd; paint-order: stroke; fill: url(#gradient-4);" transform="matrix(0.999182, 0.040451, -0.040451, 0.999182, 10.891029, -17.49013)" bx:origin="1.684 -0.571"/>
  <path class="cls-6" d="M 440.117 265.601 L 442.941 265.601 C 443.09 265.601 443.23 265.53 443.325 265.409 C 443.533 265.144 443.765 264.632 443.155 264.038 C 442.263 263.17 440.291 262.136 440.291 262.136 Z" style="fill-rule: evenodd; paint-order: fill; fill: url(#gradient-3);" transform="matrix(0.999182, 0.040451, -0.040451, 0.999182, 10.890806, -17.490563)" bx:origin="-0.717 -0.507"/>
  <rect class="cls-7" x="47.457" y="17.018" width="0.729" height="3.236" rx="8.96" style="fill: url(#linear-gradient-5);" transform="matrix(0.999182, 0.040451, -0.051975, 0.998715, 390.692993, 245.25882)" bx:origin="0.634 -1.21"/>
  <path class="cls-8" d="M 436.281 255.459 L 438.993 255.459 C 439.037 255.459 439.062 255.407 439.039 255.367 L 437.795 253.15 C 437.775 253.111 437.725 253.11 437.703 253.146 L 436.237 255.365 C 436.211 255.403 436.233 255.455 436.277 255.459 C 436.278 255.459 436.279 255.459 436.281 255.459 Z" style="fill: url(#linear-gradient-6);" transform="matrix(0.999182, 0.040451, -0.040451, 0.999182, 10.883933, -17.50836)" bx:origin="0.662 3.027"/>
  <path class="cls-9" d="M 438.485 259.518 C 438.485 259.518 438.659 260.042 437.811 260.58 Z" style="fill: url(#linear-gradient-7);" transform="matrix(0.999182, 0.040451, -0.040451, 0.999182, 10.85738, -17.493044)" bx:origin="-0.158 0.032"/>
  <title>Books</title>
  <g id="Files" transform="matrix(0.279156, 0, 0, 0.668699, 237.936768, 65.079903)" style="">
    <rect class="cls-1" x="365" y="222" width="154" height="5" rx="2.5" ry="2.5" style="fill: rgb(244, 244, 244);"/>
    <rect class="cls-1" x="365" y="231" width="154" height="5" rx="2.5" ry="2.5" style="fill: rgb(244, 244, 244);"/>
    <rect class="cls-1" x="365" y="240" width="154" height="5" rx="2.5" ry="2.5" style="fill: rgb(244, 244, 244);"/>
    <rect class="cls-1" x="399" y="269" width="141" height="5" rx="2.5" ry="2.5" style="fill: rgb(244, 244, 244);"/>
    <rect class="cls-1" x="399" y="278" width="141" height="5" rx="2.5" ry="2.5" style="fill: rgb(244, 244, 244);"/>
    <rect class="cls-1" x="399" y="287" width="141" height="5" rx="2.5" ry="2.5" style="fill: rgb(244, 244, 244);"/>
  </g>
  <g id="book1" transform="matrix(0.279156, 0, 0, 0.668699, 237.936768, 65.079903)" style="">
    <path class="cls-2" d="M911.9,615.21" transform="translate(-746 -403)" style="fill: rgb(75, 70, 189);"/>
    <path class="cls-3" d="M913.33,615.41S893,617,893,637s21,21,21,21l354,1v-6H1110s-5,1-4-7V625a4.52,4.52,0,0,1,4.31-4.72h.45C1117.85,620.2,1266,622,1266,622v-8Z" transform="translate(-746 -403)" style="fill: url(#gradient-5);"/>
    <line class="cls-2" x1="362" y1="221" x2="515" y2="221.72" style="fill: rgb(75, 70, 189);"/>
    <line class="cls-2" x1="362" y1="225" x2="515" y2="225.72" style="fill: rgb(75, 70, 189);"/>
    <line class="cls-2" x1="362" y1="229" x2="515" y2="229.72" style="fill: rgb(75, 70, 189);"/>
    <line class="cls-2" x1="362" y1="233" x2="515" y2="233.72" style="fill: rgb(75, 70, 189);"/>
    <line class="cls-2" x1="362" y1="238" x2="515" y2="238.72" style="fill: rgb(75, 70, 189);"/>
    <line class="cls-2" x1="362" y1="243" x2="515" y2="243.72" style="fill: rgb(75, 70, 189);"/>
  </g>
  <g id="book2" transform="matrix(0.279156, 0, 0, 0.668699, 226.936768, 65.079903)" style="">
    <path class="cls-4" d="M928.25,658.08s-22,2.33-22,24.53c0,19,15.42,23.35,19.83,24.21a10.64,10.64,0,0,0,2,.19l361.35.42-.31-7.42L1149,699.61s-9-.11-8-8.9V671.92s-1-6.92,7-6.92c7,0,139,1.47,139,1.47V657Z" transform="translate(-746 -403)" style="fill: url(#linear-gradient-2);"/>
    <line class="cls-5" x1="398" y1="267" x2="531" y2="267.75" style="fill: rgb(90, 204, 236);"/>
    <line class="cls-5" x1="398" y1="271" x2="531" y2="271.75" style="fill: rgb(90, 204, 236);"/>
    <line class="cls-5" x1="398" y1="275" x2="531" y2="275.75" style="fill: rgb(90, 204, 236);"/>
    <line class="cls-5" x1="398" y1="279" x2="531" y2="279.75" style="fill: rgb(90, 204, 236);"/>
    <line class="cls-6" x1="398" y1="284" x2="531" y2="284.75" style="fill: rgb(242, 242, 242);"/>
    <line class="cls-5" x1="398" y1="289" x2="531" y2="289.75" style="fill: rgb(90, 204, 236);"/>
    <line class="cls-5" x1="398" y1="293" x2="531" y2="293.75" style="fill: rgb(90, 204, 236);"/>
    <path class="cls-7" d="M1132.3,625h12a17.8,17.8,0,0,1,7,10c2,7,0,9,4,17,2.36,4.71,5.13,7.83,7,11,.39.67.9,5.23,1,6l1,12-5-3-5,5s0-16-2-19-9.89-14-9-22C1144.3,633,1141.3,630,1132.3,625Z" transform="translate(-746 -403)" style="fill: rgb(248, 36, 106);"/>
  </g>
  <g id="Layer_18" transform="matrix(0.126608, 0, 0, 0.126608, 432.307922, 229.017273)" style="">
    <linearGradient id="SVGID_1_" gradientUnits="userSpaceOnUse" x1="858.1535" y1="-215.4497" x2="1011.92" y2="-215.4497" gradientTransform="matrix(1 0 0 -1 -858.14 -49.79)">
      <stop offset="0" style="stop-color:#93FD93"/>
      <stop offset="0.51" style="stop-color:#21C2C1"/>
      <stop offset="1" style="stop-color:#84F599"/>
    </linearGradient>
    <path class="st0" d="M136.5,233.5c0,0,11.7-63.7-50-97.8S21.9,102,9.7,98.1c-7-2.4-14.2,2.6-6.1,12.8s3.5,12.8,19.7,17.3 s18.7,24.3,26.8,29.2c8.1,4.9,15.2,6.2,40,16.9c22.5,9.7,41.7,37.1,41.7,46.8s22,12.9,22,12.9L136.5,233.5z" style="fill: url(#SVGID_1_);"/>
    <linearGradient id="SVGID_2_" gradientUnits="userSpaceOnUse" x1="915.7653" y1="-166.9856" x2="1003.1454" y2="-274.1156" gradientTransform="matrix(1 0 0 -1 -858.14 -49.79)">
      <stop offset="0" style="stop-color:#93FD93"/>
      <stop offset="0.51" style="stop-color:#21C2C1"/>
      <stop offset="1" style="stop-color:#84F599"/>
    </linearGradient>
    <path class="st1" d="M134.3,224.6c0,0,15.7-58.6-38.3-90.3S23.1,103,12.4,99.2C6.3,97,23.1,104.6,30.1,114s5.3,7.3,18,14.3 c14.7,8.1,20.8,16,29.4,17.6c12.5,2.4,8.8,15.4,30.5,25.2c19.6,8.9,22.1,32.7,22.1,41.7s19.2,12,19.2,12L134.3,224.6z" style="fill: url(#SVGID_2_);"/>
    <linearGradient id="SVGID_3_" gradientUnits="userSpaceOnUse" x1="1016.4244" y1="-288.1557" x2="1136.5544" y2="-195.2057" gradientTransform="matrix(1 0 0 -1 -858.14 -49.79)">
      <stop offset="0" style="stop-color:#93FD93"/>
      <stop offset="0.51" style="stop-color:#21C2C1"/>
      <stop offset="1" style="stop-color:#84F599"/>
    </linearGradient>
    <path class="st2" d="M188.7,216l6.1-5.8c2.9-2.7,6.5-4.7,10.4-5.7c19.1-5,79.1-23.8,104-69.2c0.2-0.4,0-0.9-0.4-1.1 c0,0-0.1,0-0.1,0c-0.1,0-0.2-0.1-0.3-0.1c-8.3-0.6-51-1.3-108.1,47.4c-1,0.8-2,1.8-2.8,2.8c-1.4,2-3.8,5.4-4.9,7.2 c-1.5,2.6,1.5,7-2.5,10.9S177.5,216,177.5,216l7,5.2L188.7,216z" style="fill: url(#SVGID_3_);"/>
    <linearGradient id="SVGID_4_" gradientUnits="userSpaceOnUse" x1="1046.6136" y1="-240.8951" x2="943.4336" y2="-110.275" gradientTransform="matrix(1 0 0 -1 -858.14 -49.79)">
      <stop offset="0" style="stop-color:#93FD93"/>
      <stop offset="0.51" style="stop-color:#21C2C1"/>
      <stop offset="1" style="stop-color:#84F599"/>
    </linearGradient>
    <path class="st3" d="M156.2,212.2c0,0,16.4-146.6-28.3-192.7c-41.2-42.4-41.8-3.4-41.7,3.2c0,0.6,0.2,1.1,0.4,1.6 c9.7,18.1,13.1,39,9.6,59.2c-4.2,21.2,26.1,18.4,28.7,39.3s13.2,53.1,12.1,67.9s-1.2,29.2-1.2,29.2l16.5,0.5L156.2,212.2z" style="fill: url(#SVGID_4_);"/>
    <linearGradient id="SVGID_5_" gradientUnits="userSpaceOnUse" x1="944.728" y1="-159.9609" x2="1017.3268" y2="-159.9609" gradientTransform="matrix(1 0 0 -1 -858.14 -49.79)">
      <stop offset="0" style="stop-color:#93FD93"/>
      <stop offset="0.51" style="stop-color:#21C2C1"/>
      <stop offset="1" style="stop-color:#84F599"/>
    </linearGradient>
    <path class="st4" d="M156,212.7c0.1-0.3,0.2-0.7,0.3-1c1-9.6,14.8-147.7-28.4-192.2c-40.9-42.2-41.5-4-41.3,2.9 c0.1,0.8,0.5,1.6,0.9,2.3c3,4.4,16.5,23.6,28.5,21.4c33.1-5.9,3.9,33.9,21.9,55.2c14.4,16.8,9.6,74.8,8.5,89.7 c-0.7,8.4-2.1,16.6-4.2,24.8c-0.4,2.1,1,4.1,3,4.5c0.1,0,0.2,0,0.3,0c0.3,0,0.5,0.1,0.8,0.1h3c1.8,0.1,3.4-0.8,4.2-2.4L156,212.7z" style="fill: url(#SVGID_5_);"/>
    <linearGradient id="SVGID_6_" gradientUnits="userSpaceOnUse" x1="1011.0566" y1="-278.5484" x2="1089.6967" y2="-164.8184" gradientTransform="matrix(1 0 0 -1 -858.14 -49.79)">
      <stop offset="0" style="stop-color:#93FD93"/>
      <stop offset="0.51" style="stop-color:#21C2C1"/>
      <stop offset="1" style="stop-color:#84F599"/>
    </linearGradient>
    <path class="st5" d="M172.1,221.2c0,0,2.9-40.6,26.6-65.4c6.6-6.8,15-11.5,24.2-13.6c7.1-1.6,18.7-7.3,28.8-26.3 c0,0,19.1-27,38.2-35.2s0-9.2,0-9.2s-54.6,10.4-89.6,42.4c-2.2,2-4.5,3.9-7,5.5c-9.1,6.2-34.2,29.6-33.1,97.9L172.1,221.2z" style="fill: url(#SVGID_6_);"/>
    <linearGradient id="SVGID_7_" gradientUnits="userSpaceOnUse" x1="965.7581" y1="-307.9589" x2="1077.7224" y2="-307.9589" gradientTransform="matrix(1 0 0 -1 -858.14 -49.79)">
      <stop offset="0" style="stop-color:#F8C547"/>
      <stop offset="1" style="stop-color:#F71D69"/>
    </linearGradient>
    <path class="st6" d="M219.5,217.9c0,0,0.8-4.9-5.7-4.8c-5.7,0.2-102.1-0.5-102.1-0.5s-4.5,0-4.2,3.4s14.9,83.7,16.3,85.4 c0.6,1,1.6,1.8,2.8,2.1c1.8,0.5,69.5,0.1,69.5,0.1c1.6-0.2,2.8-1.5,2.9-3.1C198.9,300.6,219.7,218.9,219.5,217.9" style="fill: url(#SVGID_7_);"/>
  </g>
  <title>Table</title>
  <linearGradient id="gradient-6" gradientUnits="userSpaceOnUse" x1="664.66" y1="-98.29" x2="1285.6896" y2="-98.29" gradientTransform="matrix(0.408397, 0, 0, -0.408397, -35.520916, 230.122986)">
    <stop offset="0" style="stop-color:#58CAEA"/>
    <stop offset="1" style="stop-color:#4C4CBF"/>
  </linearGradient>
  <path class="st0" d="M 236.582 266.854 C 236.214 266.854 235.929 267.139 235.929 267.507 C 235.929 267.507 235.929 267.507 235.929 267.507 C 235.929 269.304 236.337 274 240.136 274 C 244.628 274 472.023 273.878 485.745 273.837 C 486.235 273.837 487.011 272.979 487.461 272.408 C 488.114 271.632 489.012 270.447 489.543 267.834 C 489.666 267.262 489.298 266.69 488.726 266.568 C 488.645 266.568 488.563 266.527 488.522 266.527 L 236.582 266.854 Z" style="fill: url(#gradient-6);"/>
  <linearGradient id="gradient-7" gradientUnits="userSpaceOnUse" x1="706.2922" y1="-113.06" x2="1252.34" y2="-113.06" gradientTransform="matrix(0.408397, 0, 0, -0.408397, -35.520916, 230.122986)">
    <stop offset="0" style="stop-color:#4B45BD"/>
    <stop offset="1" style="stop-color:#4C4CBF"/>
  </linearGradient>
  <path class="st1" d="M 252.959 273.96 C 252.959 273.96 252.551 278.86 256.634 278.86 C 260.596 278.86 460.383 278.452 472.431 278.412 C 472.84 278.412 473.289 278.248 473.616 278.003 C 474.351 277.431 475.536 276.165 475.984 273.715 L 252.959 273.96 Z" style="fill: url(#gradient-7);"/>
  <linearGradient id="gradient-8" gradientUnits="userSpaceOnUse" x1="489.17" y1="184.655" x2="554.17" y2="184.655" gradientTransform="matrix(0.408397, 0, 0, -0.408397, 232.928253, 428.252686)">
    <stop offset="0" style="stop-color:#4B45BD"/>
    <stop offset="1" style="stop-color:#4C4CBF"/>
  </linearGradient>
  <polyline class="st2" points="432.716 278.329 435.004 278.329 459.263 427.231 457.343 427.354 432.716 278.329 432.716 278.329" style="fill: url(#gradient-8);"/>
  <linearGradient id="gradient-9" gradientUnits="userSpaceOnUse" x1="-345.1275" y1="-301.28" x2="-280.1175" y2="-301.28" gradientTransform="matrix(-0.498244, 0, 0, -0.408397, 131.449722, 230.122986)">
    <stop offset="0" style="stop-color:#4B45BD"/>
    <stop offset="1" style="stop-color:#4C4CBF"/>
  </linearGradient>
  <polyline class="st3" points="302.111 278.656 299.293 278.656 269.602 427.517 271.93 427.68 302.111 278.656 302.111 278.656" style="fill: url(#gradient-9);"/>
  <linearGradient id="gradient-10" gradientUnits="userSpaceOnUse" x1="-379.7375" y1="-287.99" x2="-314.7375" y2="-287.99" gradientTransform="matrix(-0.498244, 0, 0, -0.408397, 131.449722, 230.122986)">
    <stop offset="0" style="stop-color:#4B45BD"/>
    <stop offset="1" style="stop-color:#4C4CBF"/>
  </linearGradient>
  <polyline class="st4" points="319.386 278.656 316.61 278.656 286.919 416.694 289.247 416.817 319.386 278.656 319.386 278.656" style="fill: url(#gradient-10);"/>
  <linearGradient id="gradient-11" gradientUnits="userSpaceOnUse" x1="907.8707" y1="-286.455" x2="972.9052" y2="-286.455" gradientTransform="matrix(0.47374, 0, 0, -0.408397, -17.145435, 230.122986)">
    <stop offset="0" style="stop-color:#4B45BD"/>
    <stop offset="1" style="stop-color:#4C4CBF"/>
  </linearGradient>
  <polyline class="st5" points="413.154 278.044 415.809 278.044 443.988 416.041 441.783 416.163 413.154 278.044 413.154 278.044" style="fill: url(#gradient-11);"/>
  <title>tools</title>
  <polygon class="cls-1" points="402.5 235.723 407.008 235.39 407.935 247.178 403.812 247.178 402.5 235.723" style="fill: rgb(255, 255, 255);"/>
  <rect class="cls-2" x="36.286" y="39.987" width="1.869" height="0.281" transform="matrix(0.996904, -0.078633, 0.078633, 0.996904, 363.853577, 200.86557)" style="fill: url(#gradient-12);"/>
  <rect class="cls-3" x="36.426" y="40.834" width="1.207" height="0.281" transform="matrix(0.996904, -0.078633, 0.078633, 0.996904, 363.786224, 200.853226)" style="fill: url(#linear-gradient-1);"/>
  <rect class="cls-4" x="36.487" y="41.608" width="1.207" height="0.281" transform="matrix(0.996904, -0.078633, 0.078633, 0.996904, 363.725616, 200.859955)" style="fill: url(#linear-gradient-3);"/>
  <rect class="cls-5" x="36.695" y="43.328" width="1.869" height="0.281" transform="matrix(0.996904, -0.078633, 0.078633, 0.996904, 363.592041, 200.908234)" style="fill: url(#linear-gradient-4);"/>
  <rect class="cls-6" x="36.538" y="42.461" width="1.207" height="0.281" transform="matrix(0.996904, -0.078633, 0.078633, 0.996904, 363.658264, 200.867813)" style="fill: url(#linear-gradient-19);"/>
  <rect class="cls-7" x="36.821" y="44.218" width="1.207" height="0.281" transform="matrix(0.996904, -0.078633, 0.078633, 0.996904, 363.521301, 200.89476)" style="fill: url(#linear-gradient-20);"/>
  <rect class="cls-8" x="36.902" y="45.17" width="1.207" height="0.281" transform="matrix(0.996904, -0.078633, 0.078633, 0.996904, 363.447235, 200.903732)" style="fill: url(#linear-gradient-21);"/>
  <rect class="cls-9" x="37.026" y="46.863" width="1.869" height="0.281" transform="matrix(0.996904, -0.078633, 0.078633, 0.996904, 363.314789, 200.945282)" style="fill: url(#linear-gradient-8);"/>
  <rect class="cls-10" x="36.998" y="46.02" width="1.207" height="0.281" transform="matrix(0.996904, -0.078633, 0.078633, 0.996904, 363.379883, 200.913849)" style="fill: url(#linear-gradient-9);"/>
  <rect class="cls-11" x="37.174" y="48.451" width="1.207" height="0.281" transform="matrix(0.996904, -0.078633, 0.078633, 0.996904, 363.190155, 200.936295)" style="fill: url(#linear-gradient-10);"/>
  <rect class="cls-12" x="37.174" y="49.223" width="1.207" height="0.281" transform="matrix(0.996904, -0.078633, 0.078633, 0.996904, 363.129547, 200.938538)" style="fill: url(#linear-gradient-11);"/>
  <rect class="cls-13" x="37.124" y="47.625" width="1.207" height="0.281" transform="matrix(0.996904, -0.078633, 0.078633, 0.996904, 363.254181, 200.929565)" style="fill: url(#linear-gradient-12);"/>
  <path class="cls-14" d="M 399.783 247.177 L 411.434 247.177 C 412.085 247.177 412.575 247.772 412.45 248.411 L 408.964 265.839 C 408.867 266.321 408.445 266.669 407.954 266.671 L 402.964 266.671 C 402.464 266.672 402.035 266.314 401.944 265.822 L 398.762 248.398 C 398.645 247.762 399.135 247.176 399.783 247.177 Z" style="fill: url(#linear-gradient-13);"/>
  <path class="cls-15" d="M 407.872 266.675 L 403.4 266.675 C 403.4 266.675 406.924 265.799 407.614 261.106 C 408.305 256.414 411.847 249.124 412.469 248.197 C 412.452 248.288 412.46 248.368 412.443 248.458 C 411.745 251.928 411.119 254.698 411.03 255.417 C 410.795 257.335 409.869 259.93 409.054 265.213 C 409.054 265.245 409.041 265.29 409.039 265.345 C 408.987 266.389 408.432 266.675 407.872 266.675 Z" style="opacity: 0.1;"/>
  <polygon class="cls-16" points="397.662 237.177 400.719 247.178 403.146 247.178 399.881 236.339 397.662 237.177" style="fill: url(#linear-gradient-14);"/>
  <polygon class="cls-1" points="397.662 233.848 397.662 237.177 399.881 236.339 398.179 233.601 397.662 233.848" style="fill: rgb(255, 255, 255);"/>
  <polygon class="cls-17" points="397.662 233.848 398.179 233.601 397.662 233.01 397.662 233.848" style="fill: url(#linear-gradient-15);"/>
  <polygon class="cls-18" points="409.692 247.178 412.469 237.941 409.692 237.427 408.329 247.178 409.692 247.178" style="fill: url(#linear-gradient-16);"/>
  <polyline class="cls-1" points="409.692 237.427 410.082 235.725 412.697 236.216 412.469 237.941" style="fill: rgb(255, 255, 255);"/>
  <path class="cls-19" d="M 410.466 230.645 C 410.466 230.645 411.353 231.829 410.05 233.34 C 408.747 234.851 408.69 235.177 409.731 237.47 L 412.36 237.964 C 412.36 237.964 414.443 237.477 414.577 235.432 C 414.725 233.271 412.864 231.477 410.466 230.645 Z" style="fill: url(#linear-gradient-17);"/>
  <path class="cls-20" d="M 412.842 233.486 C 412.842 233.486 412.842 236.172 410.793 236.086" style="fill: url(#linear-gradient-18);"/>
  <path class="cls-21" d="M 449.436 206.083" style="fill: rgb(243, 243, 243);"/>
</svg>