<?xml version="1.0" encoding="utf-8"?>
<svg viewBox="0 0 381 394" xmlns="http://www.w3.org/2000/svg" xmlns:xlink="http://www.w3.org/1999/xlink">
  <defs>
    <linearGradient id="1d1d90cb-e8d6-4c10-b901-192027040f7e" x1="512.79" y1="730.45" x2="512.79" y2="139.36" gradientUnits="userSpaceOnUse">
      <stop offset="0" stop-color="gray" stop-opacity="0.25"/>
      <stop offset="0.54" stop-color="gray" stop-opacity="0.12"/>
      <stop offset="1" stop-color="gray" stop-opacity="0.1"/>
    </linearGradient>
    <linearGradient id="8425757a-56ab-41b8-890b-c9acfe5ccb1b" x1="703.39" y1="781.93" x2="703.39" y2="171.12" xlink:href="#1d1d90cb-e8d6-4c10-b901-192027040f7e"/>
    <linearGradient id="422858ff-741c-491e-b83f-4f975ae951a6" x1="876.05" y1="827.31" x2="876.05" y2="239.74" xlink:href="#1d1d90cb-e8d6-4c10-b901-192027040f7e"/>
    <linearGradient id="9b8149d4-8e0d-43dc-bd85-6bf0bb4ef8aa" x1="561.7" y1="875.44" x2="561.7" y2="737.82" xlink:href="#1d1d90cb-e8d6-4c10-b901-192027040f7e"/>
  </defs>
  <title>team spirit</title>
  <path d="M 18.821 190.824 C 24.374 220.571 36.128 246.286 54.705 258.748 C 93.328 284.653 180.38 271.292 245.359 255.958 C 278.979 248.024 308.51 226.147 329.974 195.319 Z" fill="#00bfd8" opacity="0.1" style=""/>
  <path d="M 359.578 50.806 L 323.926 50.806 C 322.229 50.806 320.842 49.068 320.842 46.943 C 320.842 44.818 322.226 43.08 323.926 43.08 L 330.095 43.08 C 328.398 43.08 327.01 41.341 327.01 39.217 C 327.01 37.092 328.395 35.358 330.095 35.358 L 325.692 35.358 C 323.996 35.358 322.608 33.619 322.608 31.495 C 322.608 29.37 323.993 27.632 325.692 27.632 L 344.301 27.632 C 340.17 25.223 335.356 23.514 329.785 22.619 C 279.044 14.447 260.926 19.85 254.526 25.41 C 246.57 32.411 237.721 37.272 228.447 39.739 C 197.14 47.833 138.593 57.574 85.525 36.617 C 59.15 26.207 39.549 43.826 27.798 73.217 L 365.769 73.217 C 365.327 64.669 364.007 56.772 361.583 49.864 C 361.011 50.479 360.305 50.811 359.578 50.806 Z" fill="#00bfd8" opacity="0.1" style=""/>
  <path d="M 15.796 128.734 C 14.427 146.035 14.895 163.517 17.18 180.634 L 330.212 194.984 C 338.837 182.595 346.157 168.607 351.96 153.426 Z M 139.595 165.758 L 133.427 165.758 C 135.119 165.758 136.511 167.497 136.511 169.621 C 136.511 171.745 135.123 173.48 133.427 173.48 L 97.788 173.48 C 96.096 173.48 94.704 171.745 94.704 169.621 C 94.704 167.497 96.092 165.758 97.788 165.758 L 103.957 165.758 C 102.265 165.758 100.873 164.019 100.873 161.895 C 100.873 159.77 102.261 158.032 103.957 158.032 L 99.55 158.032 C 97.856 158.032 96.465 156.298 96.465 154.173 C 96.465 152.048 97.853 150.31 99.55 150.31 L 135.202 150.31 C 136.898 150.31 138.287 152.048 138.287 154.173 C 138.287 156.298 136.902 158.032 135.202 158.032 L 139.595 158.032 C 141.292 158.032 142.679 159.77 142.679 161.895 C 142.679 164.019 141.301 165.758 139.595 165.758 Z" fill="#00bfd8" opacity="0.1" style=""/>
  <path d="M 365.783 73.484 L 24.031 83.904 C 19.868 97.299 17.112 112.442 15.841 128.14 L 359.794 128.14 C 362.033 118.955 363.695 109.521 364.76 99.945 C 365.783 90.718 366.194 81.796 365.783 73.484 Z M 85.232 107.625 L 79.063 107.625 C 80.757 107.625 82.148 109.363 82.148 111.488 C 82.148 113.612 80.76 115.351 79.063 115.351 L 43.414 115.351 C 41.72 115.351 40.329 113.612 40.329 111.488 C 40.329 109.363 41.718 107.625 43.414 107.625 L 49.583 107.625 C 47.889 107.625 46.498 105.891 46.498 103.766 C 46.498 101.641 47.886 99.903 49.583 99.903 L 45.175 99.903 C 43.482 99.903 42.09 98.164 42.09 96.04 C 42.09 93.915 43.479 92.176 45.175 92.176 L 80.828 92.176 C 82.525 92.176 83.913 93.915 83.913 96.04 C 83.913 98.164 82.527 99.903 80.828 99.903 L 85.232 99.903 C 86.925 99.903 88.316 101.641 88.316 103.766 C 88.316 105.891 86.925 107.625 85.232 107.625 Z" fill="#00bfd8" opacity="0.1" style=""/>
  <ellipse cx="176.999" cy="333.511" rx="31.901" ry="7.163" fill="#00bfd8" opacity="0.1" style=""/>
  <ellipse cx="251.127" cy="356.257" rx="57.552" ry="4.724" fill="#00bfd8" opacity="0.1" style=""/>
  <ellipse cx="107.799" cy="313.241" rx="43.304" ry="7.163" fill="#00bfd8" opacity="0.1" style=""/>
  <ellipse cx="119.888" cy="372.897" rx="34.667" ry="7.163" fill="#00bfd8" opacity="0.1" style=""/>
  <path d="M608.62,320.47C606.46,305.93,593.25,272,593.25,272h0c-.23-1-.49-2-.78-3C583.1,236.8,570.13,234,570.13,234L523.67,224a3.6,3.6,0,0,1,1,.93,6.45,6.45,0,0,0-.73.11,18.2,18.2,0,0,1-4.07-8.8c-.09-.48-.17-1-.23-1.49a32.68,32.68,0,0,0-2.66-49.13c-.49-.38-1-.75-1.49-1.1,2.19-2.33,2.26-5.57.62-8.81-3.66-7.6-11.62-12.41-19.8-14.76-6.25-1.79-13-2.37-19.22-.41-3.53,1.12-6.75,3-10.06,4.67-6.17,3.08-13,5.52-17.61,10.59-1.08,1.18-2.08,2.69-1.76,4.25.24,1.16,1.16,2.06,1.75,3.09,1.33,2.31,1,5.22.09,7.74s-2.24,4.86-2.87,7.44-.39,5.62,1.55,7.47a32.91,32.91,0,0,0,2.9,2,15.21,15.21,0,0,1,2.77,3.11q2.76,3.7,5.5,7.43a76.54,76.54,0,0,1,6.89,10.47c1.37,2.7,2.43,5.58,4.26,8a11.86,11.86,0,0,0,1.83,1.92l-.54-.21A8.33,8.33,0,0,0,477.9,221h0c.1,0,.19,0,.28,0a1.68,1.68,0,0,0,1.12-.46c0,.34,0,.68,0,1,.11,3.57.09,7.37-.16,10.94l-.43-.22a3.75,3.75,0,0,0-4,.42L431.94,267s-9.3,12.72-8,34.68l-7.5,32.93s-9.37,27.94-2.16,47.89,11.39,31.36,11.39,31.36,2.88,22.67,7.21,24.52,6.2,2.85,6.2,2.85l.86,5.42h0s.29.53.8,1.42c3.15,5.48,14.82,24.82,21.6,22.75a86.69,86.69,0,0,1,1.1,15.89l6.71,45.05s4.68,12.25,4.39,18.67S480,566,480,566a29.75,29.75,0,0,0-2.88,20.95c2.74,12,6.2,67.28,6.2,67.28l5,13.4-.14,15.71a15,15,0,0,1-3.1,7c-3.24,3.52-3,7.59-10.81,12.4s-12.76,6.63-12.76,13a16.72,16.72,0,0,1-.24,2.65c-.72,4.68-2.12,7.22,12.24,8.58,16.87,1.6,28.12-9.4,28.12-9.4s2.48-4.5,14.16-6.32c0,0,4-.21,4.21-3.74.08-1.22.06-3.55,0-6.12-.19-4.89-.66-10.6-1.28-10.88-.78-.35-2.14-5.27-2.61-7.05h3.25s3-22.67,0-37.35-.29-25.09-.29-25.09l-.58-38.77s-4-4.28-.86-11.84,0-44.9,0-44.9,1.16-13.4,4.47-16.54.16-19.63,0-20.49l5.9,19.79s2.59,39.34,8.08,46.46l1.58,17.82s11.24,16.4,9.08,25.23,2.31,40.77,2.31,40.77v32.65s-5.05,13.11,2,17.82l3-.12c-1,.93-1.77,2.33-2.94,3.54-1.35,1.39-2.12,6.68-2.55,11.23-.36,3.85-.48,7.16-.48,7.16s3,4.8,8.65,5.13S581,730.45,581,730.45s18.39,0,23.15-1l.28-.07a6.25,6.25,0,0,0,3.59-2.93,7.5,7.5,0,0,0,.86-5.39c-.59-2.81-2.82-5.89-7.76-8.51C588.83,706.07,587,700,587,700l-8.07-12.11,1.15,0s-.71-12.83,8.07-27.23l-.57-63.43s3.6-21.81-2.59-33.65c0,0-.51-12.54,3.63-16.39s-5.51-42.76-5.51-42.76-2-20.89-4.35-39.95l0,0c9.73,9.23,19.82-24,21.52-29.91l.25,0-.11-.43c.07-.28.11-.42.11-.42h0s-2.16-7.68-.58-6.12,5.48-4.28,5.48-4.28-.58-31.79,6.2-47.81S608.62,320.47,608.62,320.47Zm-29,20.23.05-.09c1,19.41-.19,60.83-.19,60.83s-1.34,5.31-2.77,11.56l-1-39.35h0l-1-37.07ZM455.51,327.32s4.9,61.29,0,70.13c-1.39,2.52-2.56,7-3.53,12.11-1.62-4.25-5.05-14.23-3.82-19.52,1.59-6.84-3.17-24.81-3.17-25.23s-.43-10,3-17.32S449.17,337,449.17,337,452.05,325,455.51,327.32Z" transform="matrix(0.42405211925506586, 0, 0, 0.42405211925506586, -117.92922560627602, 6.957035316235562)" fill="url(#1d1d90cb-e8d6-4c10-b901-192027040f7e)" style=""/>
  <path d="M467.45,465.36c-4.27,18.77-21.25-9.61-25.12-16.42-.5-.89-.78-1.41-.78-1.41l1.84-8.63,9.73-4a27.18,27.18,0,0,1,4.36,2.84C462.81,441.93,470.74,450.82,467.45,465.36Z" transform="matrix(0.4240520596504211, 0, 0, 0.4240520596504211, -118.92922560627602, 1.9570353949323192)" fill="#d38884" style="stroke-width: 0.267823; vector-effect: non-scaling-stroke;"/>
  <path d="M599.18,434.65s0,.14-.11.42c0,.12-.08.28-.13.45-1.67,5.86-11.57,38.85-21.13,29.69-10.46-10-5.38-33.12-5.38-33.12h.07l22-2.25,4.36,4.48s0,0,0,0Z" transform="matrix(0.4240520596504211, 0, 0, 0.4240520596504211, -118.92922560627602, 1.9570353949323192)" fill="#d38884" style="stroke-width: 0.267823; vector-effect: non-scaling-stroke;"/>
  <path d="M586.45,597l.56,63c-8.63,14.3-7.92,27-7.92,27l-28.44,1.12c-6.94-4.67-2-17.68-2-17.68V638s-4.39-31.69-2.27-40.47-8.91-25-8.91-25l-1.56-17.69c-5.38-7.07-7.93-46.12-7.93-46.12L522.21,489c.16.85,3.16,17.31,0,20.34s-4.39,16.41-4.39,16.41,3.11,37.08,0,44.57.84,11.75.84,11.75l.57,38.49s-2.69,10.33.28,24.9,0,37.08,0,37.08H489l.14-15.71-4.94-13.3s-3.4-54.9-6.09-66.79a29.84,29.84,0,0,1,2.82-20.8s-5.65-9.05-5.37-15.42S471.2,532,471.2,532l-6.58-44.71a86.86,86.86,0,0,0-3.26-25.47c-3.82-12.74-9.48-29.44-9.48-29.44l6.39.57,32.24,2.87s78.39-5.27,81.9-.89a14.71,14.71,0,0,1,1.48,4.57c3.52,15.81,8.17,65.34,8.17,65.34s9.48,38.63,5.41,42.45-3.57,16.26-3.57,16.26C590,575.3,586.45,597,586.45,597Z" transform="matrix(0.4240520596504211, 0, 0, 0.4240520596504211, -118.92922560627602, 1.9570353949323192)" fill="#444053" style="stroke-width: 0.267823; vector-effect: non-scaling-stroke;"/>
  <path d="M520.18,706.43c-.22,3.51-4.13,3.72-4.13,3.72-11.46,1.8-13.9,6.26-13.9,6.26s-11,10.93-27.59,9.34c-14.1-1.36-12.73-3.87-12-8.52a17.62,17.62,0,0,0,.23-2.62c0-6.37,4.88-8.18,12.52-13s7.43-8.81,10.61-12.31,3.51-10.29,3.51-10.29c3.6-6.27,12.73,1,12.73,1,.43,2.22,14,1.91,14,1.91s1.8,7.22,2.73,7.64c.61.28,1.07,5.94,1.25,10.8C520.24,702.91,520.26,705.22,520.18,706.43Z" transform="matrix(0.4240520596504211, 0, 0, 0.4240520596504211, -118.92922560627602, 1.9570353949323192)" fill="#b07473" style="stroke-width: 0.267823; vector-effect: non-scaling-stroke;"/>
  <path d="M520.18,706.43c-.22,3.51-4.13,3.72-4.13,3.72-11.46,1.8-13.9,6.26-13.9,6.26s-11,10.93-27.59,9.34c-14.1-1.36-12.73-3.87-12-8.52,6.3,1.56,18.34,3.74,25.37-.08,9.77-5.3,16.78-9,16.78-9l15.44-7.77C520.24,702.91,520.26,705.22,520.18,706.43Z" transform="matrix(0.4240520596504211, 0, 0, 0.4240520596504211, -118.92922560627602, 1.9570353949323192)" opacity="0.1" style="stroke-width: 0.267823; vector-effect: non-scaling-stroke;"/>
  <path d="M606.55,725.32a6.1,6.1,0,0,1-3.52,2.91l-.27.07c-4.67,1-22.72,1-22.72,1s-18.25-14.11-23.77-14.43-8.49-5.1-8.49-5.1.11-3.28.46-7.1c.43-4.52,1.18-9.77,2.51-11.15,2.44-2.55,3-6,8.49-3.82,0,0,7.84-13.82,17.08-3.14l9.56,14.5s1.8,6,13.91,12.51c4.84,2.6,7,5.66,7.61,8.45A7.45,7.45,0,0,1,606.55,725.32Z" transform="matrix(0.4240520596504211, 0, 0, 0.4240520596504211, -118.92922560627602, 1.9570353949323192)" fill="#b07473" style="stroke-width: 0.267823; vector-effect: non-scaling-stroke;"/>
  <path d="M606.55,725.32c-1.08.91-2.27,1.89-3.52,2.91l-.27.07c-4.67,1-22.72,1-22.72,1s-18.25-14.11-23.77-14.43-8.49-5.1-8.49-5.1.11-3.28.46-7.1c5.62,1.68,14.13,4.65,16.41,7.85,3.5,4.87,14.13,11.67,14.13,11.67s19.82-1.91,28.62-2.17A7.45,7.45,0,0,1,606.55,725.32Z" transform="matrix(0.4240520596504211, 0, 0, 0.4240520596504211, -118.92922560627602, 1.9570353949323192)" opacity="0.1" style="stroke-width: 0.267823; vector-effect: non-scaling-stroke;"/>
  <path d="M529.42,231.53l-26.1,27.59s-31.63-2.33-26.11-11.67c2.81-4.76,3.25-14.72,3-23.38-.23-8.35-1.09-15.46-1.09-15.46s44.36-22.08,41-1.49a33.89,33.89,0,0,0-.12,11.75C521.89,229.27,529.42,231.53,529.42,231.53Z" transform="matrix(0.4240520596504211, 0, 0, 0.4240520596504211, -118.92922560627602, 1.9570353949323192)" fill="#d38884" style="stroke-width: 0.267823; vector-effect: non-scaling-stroke;"/>
  <path d="M520.08,207.12a33.89,33.89,0,0,0-.12,11.75,32.56,32.56,0,0,1-23.22,9.69c-6,0-12.49-4.93-17.34-7.78-.23-8.36-.28-12.17-.28-12.17S523.48,186.53,520.08,207.12Z" transform="matrix(0.4240520596504211, 0, 0, 0.4240520596504211, -118.92922560627602, 1.9570353949323192)" opacity="0.1" style="stroke-width: 0.267823; vector-effect: non-scaling-stroke;"/>
  <path d="M529.42,194.17a32.69,32.69,0,1,1-12.3-25.54A32.69,32.69,0,0,1,529.42,194.17Z" transform="matrix(0.4240520596504211, 0, 0, 0.4240520596504211, -118.92922560627602, 1.9570353949323192)" fill="#d38884" style="stroke-width: 0.267823; vector-effect: non-scaling-stroke;"/>
  <path d="M573.89,439.5c-8.14,19.37-60.5,19.77-60.5,19.77V438.15l-3.17-.21c1.37,6.05-1.92,20.8-1.92,20.8C466.92,464.58,456.83,441,456.83,441l1.44-8.07,32.24,2.87s78.39-5.27,81.9-.89A14.71,14.71,0,0,1,573.89,439.5Z" transform="matrix(0.4240520596504211, 0, 0, 0.4240520596504211, -118.92922560627602, 1.9570353949323192)" opacity="0.1" style="stroke-width: 0.267823; vector-effect: non-scaling-stroke;"/>
  <path d="M513.39,456.72V435.6l-3.17-.2c1.37,6-1.92,20.8-1.92,20.8-31.14,4.39-44.56-7.87-49.29-14.21a19.35,19.35,0,0,1-2.18-3.52l12.64-71.1,3-104.64L477,244.37l1.05-8.81v-.1l.11,0,3.22,1.38,19.27,8.33,21.89-16.53.32-.23,1.09-.83,1.81,1.45,4.5,3.61,14.43,93.19s25,71.75,29.68,100.71c.19,1.16.34,2.24.46,3.25C577.92,456.23,513.39,456.72,513.39,456.72Z" transform="matrix(0.4240520596504211, 0, 0, 0.4240520596504211, -118.92922560627602, 1.9570353949323192)" fill="#00bfd8" style="stroke-width: 0.267823; vector-effect: non-scaling-stroke;"/>
  <circle cx="471.83" cy="227.09" r="1.86" fill="#67647e" transform="matrix(0.4240520596504211, 0, 0, 0.4240520596504211, -105.71576325352333, 10.497439159161587)" style="stroke-width: 0.267823; vector-effect: non-scaling-stroke;"/>
  <circle cx="472.69" cy="244.07" r="1.86" fill="#67647e" transform="matrix(0.4240520596504211, 0, 0, 0.4240520596504211, -105.71576325352333, 10.497439159161587)" style="stroke-width: 0.267823; vector-effect: non-scaling-stroke;"/>
  <circle cx="474.55" cy="271.56" r="1.86" fill="#67647e" transform="matrix(0.4240520596504211, 0, 0, 0.4240520596504211, -105.71576325352333, 10.497439159161587)" style="stroke-width: 0.267823; vector-effect: non-scaling-stroke;"/>
  <circle cx="477.62" cy="301.17" r="1.86" fill="#67647e" transform="matrix(0.4240520596504211, 0, 0, 0.4240520596504211, -105.71576325352333, 10.497439159161587)" style="stroke-width: 0.267823; vector-effect: non-scaling-stroke;"/>
  <circle cx="479.48" cy="328.97" r="1.86" fill="#67647e" transform="matrix(0.4240520596504211, 0, 0, 0.4240520596504211, -105.71576325352333, 10.497439159161587)" style="stroke-width: 0.267823; vector-effect: non-scaling-stroke;"/>
  <circle cx="481.34" cy="358.58" r="1.86" fill="#67647e" transform="matrix(0.4240520596504211, 0, 0, 0.4240520596504211, -105.71576325352333, 10.497439159161587)" style="stroke-width: 0.267823; vector-effect: non-scaling-stroke;"/>
  <circle cx="480.6" cy="387.87" r="1.86" fill="#67647e" transform="matrix(0.4240520596504211, 0, 0, 0.4240520596504211, -105.71576325352333, 10.497439159161587)" style="stroke-width: 0.267823; vector-effect: non-scaling-stroke;"/>
  <path d="M479.29,377.71s-2.08,27.23-5.9,35.15S467.87,443,467.87,443L459,442a19.35,19.35,0,0,1-2.18-3.52l12.64-71.1,3-104.64L477,244.37l1.05-8.81.12-.05a3.58,3.58,0,0,1,3.16.05l.42.22q-.19.54-.36,1.11c-3.46,10.83-4.75,30.79-4.75,30.79s5,36.51,5.52,53.49S479.29,377.71,479.29,377.71Z" transform="matrix(0.4240520596504211, 0, 0, 0.4240520596504211, -118.92922560627602, 1.9570353949323192)" opacity="0.1" style="stroke-width: 0.267823; vector-effect: non-scaling-stroke;"/>
  <path d="M457.48,437.77a5.13,5.13,0,0,1-.34.66c-3.44,5.81-12.16,9.5-14.81,10.51-.5-.89-.78-1.41-.78-1.41l1.84-8.63,9.73-4A27.18,27.18,0,0,1,457.48,437.77Z" transform="matrix(0.4240520596504211, 0, 0, 0.4240520596504211, -118.92922560627602, 1.9570353949323192)" opacity="0.1" style="stroke-width: 0.267823; vector-effect: non-scaling-stroke;"/>
  <path d="M433.91,298.81l-8.07,4.81-7.35,32.69s-9.2,27.73-2.13,47.54S427.54,415,427.54,415s2.83,22.5,7.08,24.34,6.08,2.83,6.08,2.83l.85,5.38s11.52-3.91,15.59-10.8-3-24-3-24-6.08-14.58-4.52-21.37-3.12-24.62-3.12-25-.42-9.91,3-17.2,1.14-10.4,1.14-10.4l-2.13-20.8Z" transform="matrix(0.4240520596504211, 0, 0, 0.4240520596504211, -118.92922560627602, 1.9570353949323192)" fill="#67647e" style="stroke-width: 0.267823; vector-effect: non-scaling-stroke;"/>
  <path d="M574.56,433.38s-21.37,8.06-28.16,1-6.09-40.19-6.09-40.19-6.5-61.13-10.61-71.17-2-82.5-2-82.5-2.76-9.37-5.17-11.82a2.62,2.62,0,0,0-.51-.41l.83.18,2.9.62,4.5,3.61,14.43,93.19s25,71.75,29.68,100.71Z" transform="matrix(0.4240520596504211, 0, 0, 0.4240520596504211, -118.92922560627602, 1.9570353949323192)" opacity="0.1" style="stroke-width: 0.267823; vector-effect: non-scaling-stroke;"/>
  <path d="M599.18,435.5l-.24,0c-2.69.35-26.43,3.22-26.53-1.72a14.47,14.47,0,0,1,.09-1.71l22-2.25,4.36,4.48s0,0,0,0c.08.29.14.54.2.74Z" transform="matrix(0.4240520596504211, 0, 0, 0.4240520596504211, -118.92922560627602, 1.9570353949323192)" opacity="0.1" style="stroke-width: 0.267823; vector-effect: non-scaling-stroke;"/>
  <path d="M576.4,266.07,592,274.21s13,33.66,15.08,48.09c0,0,9.63,38.66,3,54.56S604,424.32,604,424.32s-3.82,5.8-5.38,4.25.57,6.08.57,6.08-26.67,3.54-26.78-1.7,6.12-30.28,6.12-30.28,1.7-59.57-.71-68.91S576.4,266.07,576.4,266.07Z" transform="matrix(0.4240520596504211, 0, 0, 0.4240520596504211, -118.92922560627602, 1.9570353949323192)" fill="#67647e" style="stroke-width: 0.267823; vector-effect: non-scaling-stroke;"/>
  <path d="M529.85,329.52s-8.78,21.5-11.61,22.92.57,7.07.57,7.07S534.8,337.16,529.85,329.52Z" transform="matrix(0.4240520596504211, 0, 0, 0.4240520596504211, -118.92922560627602, 1.9570353949323192)" opacity="0.1" style="stroke-width: 0.267823; vector-effect: non-scaling-stroke;"/>
  <path d="M524.61,254.1c.1-.41-10.47,10.37-13.3,12S521.64,266,524.61,254.1Z" transform="matrix(0.4240520596504211, 0, 0, 0.4240520596504211, -118.92922560627602, 1.9570353949323192)" opacity="0.1" style="stroke-width: 0.267823; vector-effect: non-scaling-stroke;"/>
  <path d="M495.18,327.82s-16.13,10.43-14,14.56S495.18,327.82,495.18,327.82Z" transform="matrix(0.4240520596504211, 0, 0, 0.4240520596504211, -118.92922560627602, 1.9570353949323192)" opacity="0.1" style="stroke-width: 0.267823; vector-effect: non-scaling-stroke;"/>
  <path d="M524.47,480.07s13.73,8.83,35.09,11Z" transform="matrix(0.4240520596504211, 0, 0, 0.4240520596504211, -118.92922560627602, 1.9570353949323192)" opacity="0.1" style="stroke-width: 0.267823; vector-effect: non-scaling-stroke;"/>
  <path d="M491.5,501.3s12.73,16,18.54,16.41S491.5,501.3,491.5,501.3Z" transform="matrix(0.4240520596504211, 0, 0, 0.4240520596504211, -118.92922560627602, 1.9570353949323192)" opacity="0.1" style="stroke-width: 0.267823; vector-effect: non-scaling-stroke;"/>
  <path d="M509.33,564c-.57.28-7.22,14.43-14,14.86S509.33,564,509.33,564Z" transform="matrix(0.4240520596504211, 0, 0, 0.4240520596504211, -118.92922560627602, 1.9570353949323192)" opacity="0.1" style="stroke-width: 0.267823; vector-effect: non-scaling-stroke;"/>
  <path d="M568.33,595s12.62-2.83,15.43,6.22C583.76,601.19,582.91,598.36,568.33,595Z" transform="matrix(0.4240520596504211, 0, 0, 0.4240520596504211, -118.92922560627602, 1.9570353949323192)" opacity="0.1" style="stroke-width: 0.267823; vector-effect: non-scaling-stroke;"/>
  <path d="M559.84,646.76s15.29-3.12,18.54,1.13S559.84,646.76,559.84,646.76Z" transform="matrix(0.4240520596504211, 0, 0, 0.4240520596504211, -118.92922560627602, 1.9570353949323192)" opacity="0.1" style="stroke-width: 0.267823; vector-effect: non-scaling-stroke;"/>
  <path d="M516.59,654c0,.14-15.56,3.12-15,5.1s16.6,1.7,17.17-1.42A3,3,0,0,0,516.59,654Z" transform="matrix(0.4240520596504211, 0, 0, 0.4240520596504211, -118.92922560627602, 1.9570353949323192)" opacity="0.1" style="stroke-width: 0.267823; vector-effect: non-scaling-stroke;"/>
  <path d="M554.75,667.42s25.57-3.12,24,2.26S554.75,667.42,554.75,667.42Z" transform="matrix(0.4240520596504211, 0, 0, 0.4240520596504211, -118.92922560627602, 1.9570353949323192)" opacity="0.1" style="stroke-width: 0.267823; vector-effect: non-scaling-stroke;"/>
  <path d="M420.89,352.44c.14.42,16.84,2.69,19.1,8.07,0,0-16.41-7.65-19-7.65" transform="matrix(0.4240520596504211, 0, 0, 0.4240520596504211, -118.92922560627602, 1.9570353949323192)" opacity="0.1" style="stroke-width: 0.267823; vector-effect: non-scaling-stroke;"/>
  <path d="M444.38,396.16s-13.87,4.39-12.88,11S430.09,404.1,444.38,396.16Z" transform="matrix(0.4240520596504211, 0, 0, 0.4240520596504211, -118.92922560627602, 1.9570353949323192)" opacity="0.1" style="stroke-width: 0.267823; vector-effect: non-scaling-stroke;"/>
  <path d="M437.92,429.84s5.05-6.93,9.86-5.66S437.92,429.84,437.92,429.84Z" transform="matrix(0.4240520596504211, 0, 0, 0.4240520596504211, -118.92922560627602, 1.9570353949323192)" opacity="0.1" style="stroke-width: 0.267823; vector-effect: non-scaling-stroke;"/>
  <path d="M517.12,168.63a7.87,7.87,0,0,1-1.62,1.21c-4,2.33-5.1,5.92-7,10.06-1.77,3.79-3.72,7.8-7.29,9.95-4.61,2.78-10.68,1.76-15.47,4.18a12,12,0,0,0-6.4,11.83,34.12,34.12,0,0,0,1.36,5.42,38.65,38.65,0,0,1,1.46,11.77,2,2,0,0,1,0,.35,32.68,32.68,0,1,1,35-54.77Z" transform="matrix(0.4240520596504211, 0, 0, 0.4240520596504211, -118.92922560627602, 1.9570353949323192)" opacity="0.1" style="stroke-width: 0.267823; vector-effect: non-scaling-stroke;"/>
  <path d="M516.27,158.79c-3.59-7.54-11.4-12.32-19.43-14.65-6.13-1.77-12.79-2.35-18.87-.4-3.47,1.1-6.62,3-9.87,4.63-6.06,3.06-12.72,5.48-17.28,10.51-1.07,1.17-2,2.67-1.73,4.22.23,1.15,1.13,2,1.71,3.06,1.31,2.3,1,5.19.09,7.69s-2.2,4.82-2.82,7.39-.38,5.58,1.52,7.41c.85.81,1.94,1.32,2.86,2a15.05,15.05,0,0,1,2.71,3.08l5.4,7.38a74.85,74.85,0,0,1,6.76,10.39c1.34,2.68,2.38,5.54,4.18,7.93s4.6,4.31,7.58,4.05a1.47,1.47,0,0,0,1.2-.57,1.58,1.58,0,0,0,.15-.75A38.38,38.38,0,0,0,479,210.43a33.85,33.85,0,0,1-1.36-5.42,12.05,12.05,0,0,1,6.4-11.83c4.8-2.42,10.87-1.4,15.47-4.17,3.58-2.16,5.53-6.17,7.29-10,1.93-4.14,3-7.73,7-10.06S518.26,162.76,516.27,158.79Z" transform="matrix(0.4240520596504211, 0, 0, 0.4240520596504211, -118.92922560627602, 1.9570353949323192)" fill="#585268" style="stroke-width: 0.267823; vector-effect: non-scaling-stroke;"/>
  <path d="M501.63,693.06s5,6.37,3.7,10S501.63,693.06,501.63,693.06Z" transform="matrix(0.4240520596504211, 0, 0, 0.4240520596504211, -118.92922560627602, 1.9570353949323192)" opacity="0.1" style="stroke-width: 0.267823; vector-effect: non-scaling-stroke;"/>
  <path d="M569.28,709s1.11-8.54,5.56-8.62,4.67-.46,8.07.85,6.59,3.34,5.57,3.64-5.85-4.88-10.81-2.23A35.72,35.72,0,0,0,569.28,709Z" transform="matrix(0.4240520596504211, 0, 0, 0.4240520596504211, -118.92922560627602, 1.9570353949323192)" opacity="0.1" style="stroke-width: 0.267823; vector-effect: non-scaling-stroke;"/>
  <path d="M486.71,255.88l14-9.81s-20.48-12.1-22.92-10.4-4.12,17-4.12,17Z" transform="matrix(0.4240520596504211, 0, 0, 0.4240520596504211, -118.92922560627602, 1.9570353949323192)" opacity="0.1" style="stroke-width: 0.267823; vector-effect: non-scaling-stroke;"/>
  <path d="M486.65,255.25l14-10s-20.48-12.1-22.92-10.4-4.12,17.84-4.12,17.84Z" transform="matrix(0.4240520596504211, 0, 0, 0.4240520596504211, -118.92922560627602, 1.9570353949323192)" fill="#e1e7ef" style="stroke-width: 0.267823; vector-effect: non-scaling-stroke;"/>
  <path d="M486.65,255.25l14-10s-20.48-12.1-22.92-10.4-4.12,17.84-4.12,17.84Z" transform="matrix(0.4240520596504211, 0, 0, 0.4240520596504211, -118.92922560627602, 1.9570353949323192)" fill="#00bfd8" style="stroke-width: 0.267823; vector-effect: non-scaling-stroke;"/>
  <path d="M480.05,234.93l-.42-.21a3.63,3.63,0,0,0-3.93.41l-42,34.07s-9.13,12.63-7.86,34.42l24.77,35.09s2.83-11.88,6.22-9.62c0,0,4.81,60.85,0,69.62s-6.93,41.6-6.93,41.6l16.27,1.84s1.7-22.22,5.52-30.14,5.9-35.15,5.9-35.15,3.44-39.56,2.87-56.54-5.52-53.49-5.52-53.49S476.33,245.43,480.05,234.93Z" transform="matrix(0.4240520596504211, 0, 0, 0.4240520596504211, -118.92922560627602, 1.9570353949323192)" fill="#67647e" style="stroke-width: 0.267823; vector-effect: non-scaling-stroke;"/>
  <path d="M521.89,249.68l-17.45-6.46s22.22-24.34,25-10.84Z" transform="matrix(0.4240520596504211, 0, 0, 0.4240520596504211, -118.92922560627602, 1.9570353949323192)" opacity="0.1" style="stroke-width: 0.267823; vector-effect: non-scaling-stroke;"/>
  <path d="M521.89,248.83l-17.45-6.46s22.22-24.34,25-10.84Z" transform="matrix(0.4240520596504211, 0, 0, 0.4240520596504211, -118.92922560627602, 1.9570353949323192)" fill="#e1e7ef" style="stroke-width: 0.267823; vector-effect: non-scaling-stroke;"/>
  <path d="M521.89,248.83l-17.45-6.46s22.22-24.34,25-10.84Z" transform="matrix(0.4240520596504211, 0, 0, 0.4240520596504211, -118.92922560627602, 1.9570353949323192)" fill="#00bfd8" style="stroke-width: 0.267823; vector-effect: non-scaling-stroke;"/>
  <path d="M521.32,228.12a1,1,0,0,1,.72.16Z" transform="matrix(0.4240520596504211, 0, 0, 0.4240520596504211, -118.92922560627602, 1.9570353949323192)" opacity="0.1" style="stroke-width: 0.267823; vector-effect: non-scaling-stroke;"/>
  <path d="M523,226.43l46.3,10s12.74,2.83,21.94,34.81-12.6,71.16-12.6,71.16l-4.81-4.09,2.41,93.39s-21.37,8.06-28.16,1S542,392.48,542,392.48s-6.51-61.12-10.62-71.17-2-82.49-2-82.49S525.6,225.87,523,226.43Z" transform="matrix(0.4240520596504211, 0, 0, 0.4240520596504211, -118.92922560627602, 1.9570353949323192)" fill="#67647e" style="stroke-width: 0.267823; vector-effect: non-scaling-stroke;"/>
  <path d="M565.36,285.94c-.65.6-1.41,28.86,1.42,50.37a274.5,274.5,0,0,0,8,38.77l-4.2-86.17S567.34,284.1,565.36,285.94Z" transform="matrix(0.4240520596504211, 0, 0, 0.4240520596504211, -118.92922560627602, 1.9570353949323192)" opacity="0.1" style="stroke-width: 0.267823; vector-effect: non-scaling-stroke;"/>
  <path d="M559.7,261.6c1.13.71,6.09,12.45,3.82,17.26S559.7,261.6,559.7,261.6Z" transform="matrix(0.4240520596504211, 0, 0, 0.4240520596504211, -118.92922560627602, 1.9570353949323192)" opacity="0.1" style="stroke-width: 0.267823; vector-effect: non-scaling-stroke;"/>
  <path d="M516,158.79a25.56,25.56,0,0,0-10.18-10.66,24.21,24.21,0,0,1,7.63,9c2,4,1.41,8-2.48,10.19s-5.1,5.92-7,10.06c-1.77,3.79-3.72,7.8-7.3,10-4.6,2.78-10.67,1.75-15.47,4.17a12.08,12.08,0,0,0-6.4,11.84,34,34,0,0,0,1.37,5.41,38.68,38.68,0,0,1,1.46,11.77,1.58,1.58,0,0,1-.16.75,1.43,1.43,0,0,1-1.19.57,6.89,6.89,0,0,1-3.49-.65,8.12,8.12,0,0,0,6,2.35,1.18,1.18,0,0,0,1.34-1.32,38.37,38.37,0,0,0-1.45-11.77,32.85,32.85,0,0,1-1.37-5.42,12.05,12.05,0,0,1,6.4-11.83c4.8-2.42,10.87-1.4,15.47-4.17,3.58-2.16,5.53-6.17,7.29-10,1.93-4.14,3-7.73,7-10.06S518,162.76,516,158.79Z" transform="matrix(0.4240520596504211, 0, 0, 0.4240520596504211, -118.92922560627602, 1.9570353949323192)" opacity="0.1" style="stroke-width: 0.267823; vector-effect: non-scaling-stroke;"/>
  <path d="M800.87,284.37c-13.78-.27-25.94-10-32.83-21.89a22,22,0,0,1-3.32-9.37,10.82,10.82,0,0,1,.38-2.24,23.24,23.24,0,0,0,1-3.43,6,6,0,0,0,0-1.4s0,0,0-.08c.33-2.53-1.16-5-3-6.73s-4.15-3-6.07-4.72c-5.92-5.2-7.72-13.54-7.83-21.48v-.42c.07-3.4.34-6.81.31-10.21a42.93,42.93,0,0,0-.25-5.78c-.57-4.81-2.4-9.71-6.18-12.78-9.86-8-26.44.33-36.65-7.23-2.48-1.85-4.49-4.58-7.5-5.3-2.27-.55-4.63.19-6.85.93-7.52,2.48-15.91,5.74-18.85,13-1.68,4.17-1.21,8.93-2.75,13.15-1,2.83-2.91,5.26-4.3,7.94a12.43,12.43,0,0,0-1.6,6.63,7.48,7.48,0,0,0,.49,3.53,9,9,0,0,0,2.45,3.51,11.65,11.65,0,0,1-1.46,2.34c-1.92,2.35-4.87,4-6.87,6.34-3.7,4.29-3.56,10.12-1.74,15.16s5.11,9.63,7.38,14.54c1,2.13,1.76,4.51.75,6.63-.71,1.47-2.18,2.59-3.32,3.86a12.13,12.13,0,0,0-3,6.7c-22.51,5.14-22.53,23.23-22.53,23.23h0l-12.16,30.58s-1.95,5.15-4.24,11.95l-14.39-2.58,10,16.74c-1.89,6.82-3.23,13.14-2.79,16.32,0,0-4.47,21,3.48,24.67l17.54,7.89a10.39,10.39,0,0,0,2.43,1.09l.71.32a1.88,1.88,0,0,0,1.64,0H639l.19,0a2.36,2.36,0,0,0,1-.15,2,2,0,0,0,.88-.95.3.3,0,0,1,0-.1l5.25-1.52,4.45,5.27c2,1.41,4,2.63,5.89,3.73l-6.89,68.42s-1.11,91-4.47,111.74c-1.24,7.68-1.25,12.92-.78,16.48l-.13.22c.83,5.85,3,7,3,7l0-.08a.65.65,0,0,0,.13.08,58.91,58.91,0,0,1,3.6-7.72c0,.49,0,1,0,1.5-.07,7.72-.31,18.53-1.11,25.56-1.36,12,3.48,51.55,3.48,51.55l1.67,36a33.28,33.28,0,0,1-4.1,17.54c-4,7.19-9.11,17.31-9.48,21.8a4.5,4.5,0,0,0,0,.73h0L633,773.2s-3.35,5.18,4.22,7.27c4.07,1.13,11.09,0,16.73-1.33a11.18,11.18,0,0,0,8.67-10.88,38.5,38.5,0,0,1,7.08-13.59l1.41,8.29,9.44,2.34,1.21-22.72a10,10,0,0,0,.65-4v0c1.86-16.16-4.38-14.71-4.38-14.71a.87.87,0,0,1,.3.56l-.3-.55h0c-3.83-7.56-2-20-2-20s5-36,6.71-45.51c1.23-6.72.72-28.72.31-41,0-.51,0-1-.05-1.49,14.64-.19,32.58-.68,45.17-1.9l0,1.48-2.32,85.05a46.69,46.69,0,0,1-3.26,15.82c0,.1-.07.19-.11.29a69,69,0,0,0-4.61,22.29l-1.08,27,0,.75h0c-1.88.72-4.85,2.81-4.93,8.87-.13,8.88,15.52,5.92,15.52,5.92,15.64,0,15.77-16.28,15.77-16.28s.49-14.93,1.24-24.92-2.36-7.79-2.36-7.79l-.24,28.42c0,.07,0,.14,0,.22V736.19l.24-3.61v-.1h0l0-.77L744,702.4s14.41-48.84,16.64-58.21c1.59-6.66.93-26.72.41-37.81,0-.51,0-1-.08-1.47,4.47-.4,8.42-.44,10-.44h.73s-.74-78.44-2.61-108-4.84-56.61-12.29-64.75c-4.5-4.92-10.77-20.11-15-31.36a156.88,156.88,0,0,0,27.57,9c23.59,4.94,20.36-15.54,20.36-15.54l-2.39-38.73h.16a197.48,197.48,0,0,0-2.6-30.28c-1.25-7.68-3.16-15.62-6.08-22,2.56-1,5.09-2.07,7.57-3.17,6.41-2.83,13.63-6.84,14.55-13.75h-.31A8.92,8.92,0,0,0,800.87,284.37Zm-146.23,56h0c.05,4-.1,10.94-.34,18.61l-7.49-10,7.51-12.18ZM755,360.68Zm3.12,15.13-12.48-4a56,56,0,0,1,7.71-9.54l1.08-1-.39.08.6-.55.36-.08-.57.55.68-.14a21.29,21.29,0,0,0,4.25,8.55C763.84,374.57,758.13,375.81,758.13,375.81Z" transform="matrix(0.4240520596504211, 0, 0, 0.4240520596504211, -118.92922560627602, 1.9570353949323192)" fill="url(#8425757a-56ab-41b8-890b-c9acfe5ccb1b)" style="stroke-width: 0.267823; vector-effect: non-scaling-stroke;"/>
  <polygon points="651.15 715.66 649.69 743.34 640.38 741.01 638.42 729.5 651.15 715.66" fill="#a27772" transform="matrix(0.4240520596504211, 0, 0, 0.4240520596504211, -105.71576325352333, 10.497439159161587)" style="stroke-width: 0.267823; vector-effect: non-scaling-stroke;"/>
  <polygon points="651.15 715.66 649.69 743.34 640.38 741.01 638.42 729.5 651.15 715.66" opacity="0.1" transform="matrix(0.4240520596504211, 0, 0, 0.4240520596504211, -105.71576325352333, 10.497439159161587)" style="stroke-width: 0.267823; vector-effect: non-scaling-stroke;"/>
  <path d="M716.48,767.15l14.2,2.94,10.53-9.3V734.58l.24-3.58v-.11h0l0-.76L743.41,701s14.21-48.49,16.42-57.8c1.56-6.6.91-26.52.39-37.53-.21-4.51-.39-7.53-.39-7.53l-31.35-7.59-.66,24.1-2.29,84.44a46.79,46.79,0,0,1-3.21,15.71l-.11.29a68.72,68.72,0,0,0-4.55,22.12l-1.06,26.85,0,.74Z" transform="matrix(0.4240520596504211, 0, 0, 0.4240520596504211, -118.92922560627602, 1.9570353949323192)" fill="#cc818c" style="stroke-width: 0.267823; vector-effect: non-scaling-stroke;"/>
  <path d="M741.45,730.15v.74h0l0-.76Z" transform="matrix(0.4240520596504211, 0, 0, 0.4240520596504211, -118.92922560627602, 1.9570353949323192)" opacity="0.1" style="stroke-width: 0.267823; vector-effect: non-scaling-stroke;"/>
  <path d="M716.48,767.15l14.2,2.94,10.53-9.3v-2.23a3,3,0,0,1-1.51,2.4l-.15.09a28.3,28.3,0,0,1-15.94,3.15l-5.54-.47a5.19,5.19,0,0,0-1.47.36l0,.74Z" transform="matrix(0.4240520596504211, 0, 0, 0.4240520596504211, -118.92922560627602, 1.9570353949323192)" opacity="0.1" style="stroke-width: 0.267823; vector-effect: non-scaling-stroke;"/>
  <path d="M739.55,761.78l.15-.08a3,3,0,0,0,1.53-2.6l.23-28.21s3.06-2.19,2.32,7.73-1.22,24.74-1.22,24.74-.12,16.16-15.55,16.16c0,0-15.43,2.94-15.31-5.88s6.37-9.18,6.37-9.18l5.54.48A28.23,28.23,0,0,0,739.55,761.78Z" transform="matrix(0.4240520596504211, 0, 0, 0.4240520596504211, -118.92922560627602, 1.9570353949323192)" fill="#b07473" style="stroke-width: 0.267823; vector-effect: non-scaling-stroke;"/>
  <path d="M642.52,761.15c.36,6.37,19.1,2.69,19.1,2.69l12.61-24.48s10.53-8.09,5.26-15.19a11.33,11.33,0,0,1-.77-1.21s0,0-.05-.06v0c-.11-.18-.21-.37-.31-.57h0c-3.78-7.5-1.92-19.8-1.92-19.8s4.89-35.76,6.61-45.19c1.21-6.66.71-28.51.31-40.73-.16-5.08-.31-8.49-.31-8.49l-31.11-8.33s0,3.88,0,9.28c-.07,7.67-.31,18.4-1.1,25.38-1.34,11.87,3.43,51.18,3.43,51.18l1.65,35.77a33.13,33.13,0,0,1-4,17.41c-3.9,7.14-9,17.2-9.35,21.65A4.38,4.38,0,0,0,642.52,761.15Z" transform="matrix(0.4240520596504211, 0, 0, 0.4240520596504211, -118.92922560627602, 1.9570353949323192)" fill="#cc818c" style="stroke-width: 0.267823; vector-effect: non-scaling-stroke;"/>
  <path d="M642.52,761.15c.36,6.37,19.1,2.69,19.1,2.69l12.61-24.48s10.53-8.09,5.26-15.19a11.33,11.33,0,0,1-.77-1.21c-.17,3.71-4.24,13-4.24,13s-10.41,20.83-13.72,25.6-17.69-.89-18.23-1.09A4.38,4.38,0,0,0,642.52,761.15Z" transform="matrix(0.4240520596504211, 0, 0, 0.4240520596504211, -118.92922560627602, 1.9570353949323192)" opacity="0.1" style="stroke-width: 0.267823; vector-effect: non-scaling-stroke;"/>
  <path d="M678.36,722.3s6.16-1.43,4.32,14.61v0a10.33,10.33,0,0,1-4.87,9.17c-4.41,2.77-11.21,8.73-14.65,20.32h0a11.08,11.08,0,0,1-8.55,10.8c-5.56,1.3-12.49,2.44-16.5,1.32-7.47-2.08-4.16-7.22-4.16-7.22l8.57-10.17s14.94,5.88,18.24,1.1,13.72-25.59,13.72-25.59S680.19,723.65,678.36,722.3Z" transform="matrix(0.4240520596504211, 0, 0, 0.4240520596504211, -118.92922560627602, 1.9570353949323192)" fill="#b07473" style="stroke-width: 0.267823; vector-effect: non-scaling-stroke;"/>
  <path d="M728.48,593.52l-.66,24.1c8.35-.81,14.33-1.94,15.35-3.53,2.21-3.42,10.23-4.86,17.05-5.45-.21-4.51-.39-7.53-.39-7.53Z" transform="matrix(0.4240520596504211, 0, 0, 0.4240520596504211, -118.92922560627602, 1.9570353949323192)" opacity="0.1" style="stroke-width: 0.267823; vector-effect: non-scaling-stroke;"/>
  <path d="M651.94,612a11.44,11.44,0,0,1,3.43-4.14c3.3-1.83,2.94,11.76,2.94,11.76s11,.1,25.05-.08c-.16-5.08-.31-8.5-.31-8.5l-31.11-8.32S652,606.58,651.94,612Z" transform="matrix(0.4240520596504211, 0, 0, 0.4240520596504211, -118.92922560627602, 1.9570353949323192)" opacity="0.1" style="stroke-width: 0.267823; vector-effect: non-scaling-stroke;"/>
  <path d="M648.39,615.22s3.68-10,7-11.78,2.94,11.75,2.94,11.75,80.82.74,84.86-5.51,27.55-5.88,27.55-5.88-.73-77.88-2.57-107.26-4.77-56.21-12.12-64.29c-4.75-5.23-11.51-22.15-15.69-33.43-2.27-6.16-3.78-10.65-3.78-10.65l-77.14,4.4-.63,6.25-8.19,81.92s-1.1,90.37-4.41,110.94S648.39,615.22,648.39,615.22Z" transform="matrix(0.4240520596504211, 0, 0, 0.4240520596504211, -118.92922560627602, 1.9570353949323192)" fill="#444053" style="stroke-width: 0.267823; vector-effect: non-scaling-stroke;"/>
  <g opacity="0.1" transform="matrix(0.4240520596504211, 0, 0, 0.4240520596504211, -105.71576325352333, 10.497439159161587)" style="stroke-width: 0.267823; vector-effect: non-scaling-stroke;">
    <path d="M736.91,609.68c4-6.24,27.55-5.88,27.55-5.88s-.73-77.88-2.57-107.26-4.77-56.21-12.12-64.29C745,427,738.26,410.1,734.08,398.82c-1.91-5.18-3.28-9.17-3.66-10.31l6-.34s1.51,4.49,3.79,10.65c4.18,11.28,10.93,28.2,15.68,33.43,7.35,8.08,10.29,34.9,12.12,64.29s2.58,107.26,2.58,107.26-23.51-.36-27.56,5.88c-3.45,5.33-62.92,5.58-80.18,5.53C685,615.16,733.79,614.5,736.91,609.68Z" transform="translate(-31.16 -20.14)"/>
    <path d="M649.11,603.44c1.49-.83,2.23,1.47,2.6,4.26a57.68,57.68,0,0,0-3.47,7.52s-2.13-1.15-3-7C646.46,606.13,647.81,604.16,649.11,603.44Z" transform="translate(-31.16 -20.14)"/>
  </g>
  <path d="M672.23,199.74c-5.34,7.28.06,17.63-5.67,24.71-1.89,2.34-4.8,4-6.77,6.3-3.65,4.26-3.51,10.05-1.72,15.05s5,9.56,7.28,14.44c1,2.11,1.74,4.48.74,6.58-.7,1.46-2.15,2.57-3.28,3.83-3.68,4.11-3.78,9.82-1.8,14.66s5.76,9,9.49,13.1c1.47,1.61,3.33,3.39,5.78,3.34a8,8,0,0,0,3.63-1.19,37,37,0,0,0,16.84-48.29c-3.1-7.43-8.27-14.55-8.32-22.4,0-6.23,3.2-12.18,3.77-18.38.69-7.54-3.77-19.51-12.87-22.8C679.93,193.53,674.94,196,672.23,199.74Z" transform="matrix(0.4240520596504211, 0, 0, 0.4240520596504211, -118.92922560627602, 1.9570353949323192)" fill="#585268" style="stroke-width: 0.267823; vector-effect: non-scaling-stroke;"/>
  <path d="M672.23,199.74c-5.34,7.28.06,17.63-5.67,24.71-1.89,2.34-4.8,4-6.77,6.3-3.65,4.26-3.51,10.05-1.72,15.05s5,9.56,7.28,14.44c1,2.11,1.74,4.48.74,6.58-.7,1.46-2.15,2.57-3.28,3.83-3.68,4.11-3.78,9.82-1.8,14.66s5.76,9,9.49,13.1c1.47,1.61,3.33,3.39,5.78,3.34a8,8,0,0,0,3.63-1.19,37,37,0,0,0,16.84-48.29c-3.1-7.43-8.27-14.55-8.32-22.4,0-6.23,3.2-12.18,3.77-18.38.69-7.54-3.77-19.51-12.87-22.8C679.93,193.53,674.94,196,672.23,199.74Z" transform="matrix(0.4240520596504211, 0, 0, 0.4240520596504211, -118.92922560627602, 1.9570353949323192)" opacity="0.1" style="stroke-width: 0.267823; vector-effect: non-scaling-stroke;"/>
  <path d="M731.45,464.55c-10.69.56-20.75,5.16-30.11,10.36S682.92,486,672.85,489.69" transform="matrix(0.4240520596504211, 0, 0, 0.4240520596504211, -118.92922560627602, 1.9570353949323192)" opacity="0.1" style="stroke-width: 0.267823; vector-effect: non-scaling-stroke;"/>
  <path d="M724.81,489.74a44.07,44.07,0,0,0-27.75,13.5c-2.6,2.75-4.84,5.83-7.55,8.47a33.54,33.54,0,0,1-14.88,8.43" transform="matrix(0.4240520596504211, 0, 0, 0.4240520596504211, -118.92922560627602, 1.9570353949323192)" opacity="0.1" style="stroke-width: 0.267823; vector-effect: non-scaling-stroke;"/>
  <path d="M727,508.91a48.52,48.52,0,0,0-22.32,13.46c-1.64,1.77-3.13,3.66-4.77,5.43-8.85,9.5-21.35,14.54-33.42,19.31" transform="matrix(0.4240520596504211, 0, 0, 0.4240520596504211, -118.92922560627602, 1.9570353949323192)" opacity="0.1" style="stroke-width: 0.267823; vector-effect: non-scaling-stroke;"/>
  <path d="M726.09,243.06a219.46,219.46,0,0,0,2.2,25.52c1,6,2.4,11.4,4.41,13.79,5.88,7-28.65,16.35-28.65,16.35l-20.39-15.8s16.16-14.88,8.63-29.39S726.09,243.06,726.09,243.06Z" transform="matrix(0.4240520596504211, 0, 0, 0.4240520596504211, -118.92922560627602, 1.9570353949323192)" fill="#cc818c" style="stroke-width: 0.267823; vector-effect: non-scaling-stroke;"/>
  <path d="M658.79,398.82h81.55c-2.27-6.16-3.78-10.65-3.78-10.65l-77.14,4.4Z" transform="matrix(0.4240520596504211, 0, 0, 0.4240520596504211, -118.92922560627602, 1.9570353949323192)" opacity="0.1" style="stroke-width: 0.267823; vector-effect: non-scaling-stroke;"/>
  <path d="M653.54,397.35h87.19c-2.45-8.77,0-16.88,3.49-23.12a51.1,51.1,0,0,1,9.13-11.84l.6-.55,30.44-6.74,1.64-.36s.25-55.35-19.35-62.95-31.35-17.87-31.35-17.87l-26.93,8.32-19.84-10c-6.37,6.85-23.27,4.16-23.27,4.16-27.67,3.18-27.67,24-27.67,24s16.16,37.71,17.39,37.71S653.54,397.35,653.54,397.35Z" transform="matrix(0.4240520596504211, 0, 0, 0.4240520596504211, -118.92922560627602, 1.9570353949323192)" fill="#00bfd8" style="stroke-width: 0.267823; vector-effect: non-scaling-stroke;"/>
  <path d="M683.64,362.16s-17.78-3.94-23.83-10.83" transform="matrix(0.4240520596504211, 0, 0, 0.4240520596504211, -118.92922560627602, 1.9570353949323192)" opacity="0.1" style="stroke-width: 0.267823; vector-effect: non-scaling-stroke;"/>
  <path d="M773.29,341.51l-20.62,16.9a35.13,35.13,0,0,0,.68,4l.6-.55,30.44-6.74Z" transform="matrix(0.4240520596504211, 0, 0, 0.4240520596504211, -118.92922560627602, 1.9570353949323192)" opacity="0.1" style="stroke-width: 0.267823; vector-effect: non-scaling-stroke;"/>
  <path d="M717.46,391.47s4.51,2.54,11.42,5.88h11.85c-2.45-8.77,0-16.88,3.49-23.12l-20.89-6.76C730.44,374.08,717.46,391.47,717.46,391.47Z" transform="matrix(0.4240520596504211, 0, 0, 0.4240520596504211, -118.92922560627602, 1.9570353949323192)" opacity="0.1" style="stroke-width: 0.267823; vector-effect: non-scaling-stroke;"/>
  <path d="M649.86,293.76l-12.24,6.61-12,30.37s-12.49,33.3-11.27,42.12c0,0-4.4,20.82,3.43,24.49l20.4,9.24a1.9,1.9,0,0,0,2.45-2.62c-2.91-5.51-6.11-14.13-1-18.87l-5.88-12.24L655,338.08l7.1-12Z" transform="matrix(0.4240520596504211, 0, 0, 0.4240520596504211, -118.92922560627602, 1.9570353949323192)" fill="#00bfd8" style="stroke-width: 0.267823; vector-effect: non-scaling-stroke;"/>
  <path d="M677.09,355.21c1.06,4.32,4.64,11,16.49,13.49l13,10.65,13.83,6.27,5.64,2.55,2.39-17.27-5.43-3-6.33-3.46s-14.28-25.87-36.89-15A5,5,0,0,0,677.09,355.21Z" transform="matrix(0.4240520596504211, 0, 0, 0.4240520596504211, -118.92922560627602, 1.9570353949323192)" opacity="0.1" style="stroke-width: 0.267823; vector-effect: non-scaling-stroke;"/>
  <path d="M677.83,353.74c1.06,4.33,4.63,11,16.48,13.49l13,10.65,13.84,6.27,5.63,2.55,2.39-17.27-5.43-3L717.46,363s-14.29-25.87-36.9-14.95A5,5,0,0,0,677.83,353.74Z" transform="matrix(0.4240520596504211, 0, 0, 0.4240520596504211, -118.92922560627602, 1.9570353949323192)" fill="#cc818c" style="stroke-width: 0.267823; vector-effect: non-scaling-stroke;"/>
  <circle cx="672.15" cy="213.73" r="31.59" opacity="0.1" transform="matrix(0.4240520596504211, 0, 0, 0.4240520596504211, -105.71576325352333, 10.497439159161587)" style="stroke-width: 0.267823; vector-effect: non-scaling-stroke;"/>
  <circle cx="672.15" cy="213" r="31.59" fill="#cc818c" transform="matrix(0.4240520596504211, 0, 0, 0.4240520596504211, -105.71576325352333, 10.497439159161587)" style="stroke-width: 0.267823; vector-effect: non-scaling-stroke;"/>
  <path d="M722.88,300.64l-9.5-18.46s13.9-5.62,14.91-12.13,13.32,7.63,10.66,12.32S722.88,300.64,722.88,300.64Z" transform="matrix(0.4240520596504211, 0, 0, 0.4240520596504211, -118.92922560627602, 1.9570353949323192)" opacity="0.1" style="stroke-width: 0.267823; vector-effect: non-scaling-stroke;"/>
  <path d="M722.88,299.17l-9.5-18.46s13.9-5.62,14.91-12.13,13.32,7.64,10.66,12.32S722.88,299.17,722.88,299.17Z" transform="matrix(0.4240520596504211, 0, 0, 0.4240520596504211, -118.92922560627602, 1.9570353949323192)" fill="#00bfd8" style="stroke-width: 0.267823; vector-effect: non-scaling-stroke;"/>
  <path d="M645.13,346.86l52.49,70.57s-19.35,10.53-46-8.32l-11.51-13.72L607.25,340Z" transform="matrix(0.4240520596504211, 0, 0, 0.4240520596504211, -118.92922560627602, 1.9570353949323192)" fill="#f6f8fb" style="stroke-width: 0.267823; vector-effect: non-scaling-stroke;"/>
  <path d="M634.8,385.23l4.78-.13s29.2-28.34,36.37-14-18.19,27.74-18.19,27.74L650.05,403,640,406l-6.43-8.63Z" transform="matrix(0.4240520596504211, 0, 0, 0.4240520596504211, -118.92922560627602, 1.9570353949323192)" fill="#cc818c" style="stroke-width: 0.267823; vector-effect: non-scaling-stroke;"/>
  <path d="M641.85,400.54c.44,1.63.86,3.43.12,4.94a2,2,0,0,1-.87.95,2.23,2.23,0,0,1-1,.14,10.05,10.05,0,0,1-6.59-3.26,30.1,30.1,0,0,1-4.27-6.18c-1.3-2.27-2.65-4.78-2.19-7.36.52-2.81,3-4.76,5.43-6.34,4.84-3.2,5,.53,6.06,4.65S640.74,396.38,641.85,400.54Z" transform="matrix(0.4240520596504211, 0, 0, 0.4240520596504211, -118.92922560627602, 1.9570353949323192)" opacity="0.1" style="stroke-width: 0.267823; vector-effect: non-scaling-stroke;"/>
  <path d="M641.12,400.54c.43,1.63.86,3.43.12,4.94a2,2,0,0,1-.87.95,2.25,2.25,0,0,1-1,.14,10,10,0,0,1-6.59-3.26,29.75,29.75,0,0,1-4.28-6.18c-1.3-2.27-2.65-4.78-2.18-7.36.51-2.81,3-4.76,5.42-6.34,4.85-3.2,5,.53,6.07,4.65S640,396.38,641.12,400.54Z" transform="matrix(0.4240520596504211, 0, 0, 0.4240520596504211, -118.92922560627602, 1.9570353949323192)" fill="#00bfd8" style="stroke-width: 0.267823; vector-effect: non-scaling-stroke;"/>
  <polygon points="623.85 317.94 626.29 313.81 624.16 321.48 623.85 317.94" opacity="0.1" transform="matrix(0.4240520596504211, 0, 0, 0.4240520596504211, -105.71576325352333, 10.497439159161587)" style="stroke-width: 0.267823; vector-effect: non-scaling-stroke;"/>
  <path d="M721.19,384.15l5.63,2.55,2.39-17.27-5.43-3C727.53,370.73,724.25,378.68,721.19,384.15Z" transform="matrix(0.4240520596504211, 0, 0, 0.4240520596504211, -118.92922560627602, 1.9570353949323192)" opacity="0.1" style="stroke-width: 0.267823; vector-effect: non-scaling-stroke;"/>
  <path d="M743.79,364.1s-18.18,1.11-25.9-3.85" transform="matrix(0.4240520596504211, 0, 0, 0.4240520596504211, -118.92922560627602, 1.9570353949323192)" opacity="0.1" style="stroke-width: 0.267823; vector-effect: non-scaling-stroke;"/>
  <g opacity="0.1" transform="matrix(0.4240520596504211, 0, 0, 0.4240520596504211, -105.71576325352333, 10.497439159161587)" style="stroke-width: 0.267823; vector-effect: non-scaling-stroke;">
    <path d="M741.53,375.7a51.18,51.18,0,0,1,9.13-11.85,24.37,24.37,0,0,1,2.69-1.46l28.34-5.82,1.64-.36s.25-55.35-19.34-62.95a117.72,117.72,0,0,1-30.56-17.21l2.15-.66s11.75,10.28,31.35,17.87,19.34,62.95,19.34,62.95h-2.94l-29,5.55s-1.25,1.21-1.63,1.56a56.2,56.2,0,0,0-9.27,12.26A30.74,30.74,0,0,0,741,398.82H738C735.58,390.05,738.08,381.94,741.53,375.7Z" transform="translate(-31.16 -20.14)"/>
    <path d="M664.13,278c.47-.07.92-.14,1.41-.19a50.71,50.71,0,0,0,6,.49A54.54,54.54,0,0,1,664.13,278Z" transform="translate(-31.16 -20.14)"/>
    <path d="M705.7,283.71l-17.94-9.08a9.48,9.48,0,0,0,1-.95l18.72,9.47Z" transform="translate(-31.16 -20.14)"/>
  </g>
  <path d="M774,340l12,14.7,2.45,39.92s3.18,20.32-20.08,15.42S718.19,390,718.19,390s13-17.39,5.88-24l33.31,10.78s5.63-1.23,1.22-6.12-5.19-13.72-5.19-13.72Z" transform="matrix(0.4240520596504211, 0, 0, 0.4240520596504211, -118.92922560627602, 1.9570353949323192)" fill="#00bfd8" style="stroke-width: 0.267823; vector-effect: non-scaling-stroke;"/>
  <path d="M779.42,382.17l6.61,7.59A9.53,9.53,0,0,1,779.42,382.17Z" transform="matrix(0.4240520596504211, 0, 0, 0.4240520596504211, -118.92922560627602, 1.9570353949323192)" opacity="0.1" style="stroke-width: 0.267823; vector-effect: non-scaling-stroke;"/>
  <polygon points="736.99 360.8 747.28 374.02 742.14 375.25 736.99 360.8" opacity="0.1" transform="matrix(0.4240520596504211, 0, 0, 0.4240520596504211, -105.71576325352333, 10.497439159161587)" style="stroke-width: 0.267823; vector-effect: non-scaling-stroke;"/>
  <path d="M665.58,218.64c-1.13-2.77-.26-6,1.1-8.61s3.23-5.08,4.25-7.89c1.51-4.18,1.05-8.91,2.7-13,2.91-7.25,11.18-10.49,18.59-13,2.19-.73,4.52-1.46,6.76-.92,3,.71,4.95,3.43,7.4,5.26,10.06,7.5,26.42-.76,36.15,7.18,3.72,3,5.53,7.91,6.09,12.68s0,9.61-.06,14.42c-.16,8.42,1.42,17.63,7.72,23.21,1.9,1.68,4.14,2.94,6,4.68s3.32,4.17,3,6.69a23.19,23.19,0,0,1-1,3.4c-1.25,4.39.62,9,2.9,13,6.8,11.77,18.79,21.47,32.38,21.74-.91,6.86-8,10.84-14.35,13.65-8,3.59-16.52,7.11-25.33,6.66s-18-6.09-19.54-14.77c-.53-3-.46-6.61-3-8.17-1.56-.95-3.58-.71-5.26-1.42-2.43-1-3.63-3.73-4.43-6.24a56.16,56.16,0,0,1-2.61-16c-.11-6.44.74-13.47-2.91-18.77-3.38-4.91-9.38-7.4-13.28-11.91-3.6-4.18-7.51-9.22-13.41-10C687.28,219.36,670.4,230.45,665.58,218.64Z" transform="matrix(0.4240520596504211, 0, 0, 0.4240520596504211, -118.92922560627602, 1.9570353949323192)" opacity="0.1" style="stroke-width: 0.267823; vector-effect: non-scaling-stroke;"/>
  <path d="M665.58,217.17c-1.13-2.77-.26-6,1.1-8.61s3.23-5.08,4.25-7.89c1.51-4.18,1.05-8.91,2.7-13,2.91-7.26,11.18-10.5,18.59-13,2.19-.73,4.52-1.46,6.76-.92,3,.71,4.95,3.43,7.4,5.26,10.06,7.5,26.42-.76,36.15,7.18,3.72,3,5.53,7.91,6.09,12.69s0,9.6-.06,14.41c-.16,8.42,1.42,17.63,7.72,23.21,1.9,1.68,4.14,2.94,6,4.68s3.32,4.17,3,6.69a23.19,23.19,0,0,1-1,3.4c-1.25,4.39.62,9,2.9,13C774,276,785.94,285.73,799.53,286c-.91,6.86-8,10.84-14.35,13.66-8,3.58-16.52,7.1-25.33,6.65s-18-6.09-19.54-14.77c-.53-3-.46-6.61-3-8.17-1.56-.95-3.58-.71-5.26-1.42-2.43-1-3.63-3.73-4.43-6.24a56.1,56.1,0,0,1-2.61-16c-.11-6.44.74-13.47-2.91-18.77-3.38-4.91-9.38-7.4-13.28-11.91-3.6-4.18-7.51-9.22-13.41-10C687.28,217.89,670.4,229,665.58,217.17Z" transform="matrix(0.4240520596504211, 0, 0, 0.4240520596504211, -118.92922560627602, 1.9570353949323192)" fill="#585268" style="stroke-width: 0.267823; vector-effect: non-scaling-stroke;"/>
  <path d="M688,298.35l18.11-14.7s-12.4-6.72-13.88-12.45-11.4,2.72-10.39,7.86S688,298.35,688,298.35Z" transform="matrix(0.4240520596504211, 0, 0, 0.4240520596504211, -118.92922560627602, 1.9570353949323192)" opacity="0.1" style="stroke-width: 0.267823; vector-effect: non-scaling-stroke;"/>
  <path d="M688.71,296.14l18.11-14.69S694.42,274.73,693,269s-11.4,2.72-10.39,7.86S688.71,296.14,688.71,296.14Z" transform="matrix(0.4240520596504211, 0, 0, 0.4240520596504211, -118.92922560627602, 1.9570353949323192)" fill="#00bfd8" style="stroke-width: 0.267823; vector-effect: non-scaling-stroke;"/>
  <circle cx="676.37" cy="273.61" r="1.44" opacity="0.1" transform="matrix(0.4240520596504211, 0, 0, 0.4240520596504211, -105.71576325352333, 10.497439159161587)" style="stroke-width: 0.267823; vector-effect: non-scaling-stroke;"/>
  <circle cx="676.37" cy="281.61" r="1.44" opacity="0.1" transform="matrix(0.4240520596504211, 0, 0, 0.4240520596504211, -105.71576325352333, 10.497439159161587)" style="stroke-width: 0.267823; vector-effect: non-scaling-stroke;"/>
  <circle cx="676.37" cy="289.6" r="1.44" opacity="0.1" transform="matrix(0.4240520596504211, 0, 0, 0.4240520596504211, -105.71576325352333, 10.497439159161587)" style="stroke-width: 0.267823; vector-effect: non-scaling-stroke;"/>
  <g opacity="0.1" transform="matrix(0.4240520596504211, 0, 0, 0.4240520596504211, -105.71576325352333, 10.497439159161587)" style="stroke-width: 0.267823; vector-effect: non-scaling-stroke;">
    <path d="M672.89,196.75c1.43-3.93,1.12-8.34,2.46-12.3a13.44,13.44,0,0,0-1.53,2.82c-1.66,4.13-1.19,8.86-2.71,13l-.1.24A22.85,22.85,0,0,0,672.89,196.75Z" transform="translate(-31.16 -20.14)"/>
    <path d="M787.14,295.74c-8,3.58-16.52,7.1-25.33,6.65s-18-6.09-19.54-14.76c-.53-3-.46-6.62-3-8.18-1.56-.95-3.58-.71-5.26-1.42-2.43-1-3.63-3.73-4.43-6.24a56.1,56.1,0,0,1-2.61-16c-.11-6.43.75-13.46-2.9-18.77-3.39-4.91-9.39-7.39-13.29-11.91-3.6-4.17-7.51-9.22-13.41-10-8.09-1.1-25,10-29.78-1.82a9.3,9.3,0,0,1,.31-6.83c-.35.59-.69,1.18-1,1.78-1.36,2.66-2.22,5.85-1.09,8.62,4.81,11.8,21.69.71,29.78,1.82,5.9.8,9.81,5.85,13.41,10,3.9,4.52,9.9,7,13.28,11.92,3.66,5.3,2.8,12.33,2.91,18.76a56.1,56.1,0,0,0,2.61,16c.8,2.52,2,5.22,4.43,6.24,1.68.71,3.7.48,5.26,1.42,2.58,1.56,2.51,5.21,3,8.18,1.56,8.67,10.74,14.31,19.54,14.76s17.28-3.06,25.33-6.65c5.8-2.58,12.26-6.15,14-12C796.58,291.11,791.66,293.73,787.14,295.74Z" transform="translate(-31.16 -20.14)"/>
  </g>
  <path d="M963.87,352.18C942.7,340,934.7,337,934.66,337l-.44-.31a17.61,17.61,0,0,1-5.33-6.74,14.07,14.07,0,0,1,0-1.45.61.61,0,0,0,0,.14c.33-6.45,4.92-12.32,9.27-17.44l11.13-13.09a12.9,12.9,0,0,0,2.87-4.54,10.47,10.47,0,0,0,.3-2.79c0-.38,0-.76,0-1.14-.06-3.25-.15-6.51-.27-9.76-.1-2.84-.83-6.42-3.67-7-1.48-.3-3.44.23-4.22-1a2.43,2.43,0,0,1-.19-1.69.58.58,0,0,0,0,.14l0-.16a37.67,37.67,0,0,0,1.05-6.69,9.12,9.12,0,0,0-.46-3.39c-1.64-4.71-7.31-6.65-12.32-7.54s-10.63-1.65-13.77-5.57a40.73,40.73,0,0,0-2.74-3.77,10.81,10.81,0,0,0-5.12-2.53,29,29,0,0,0-18.63,1.62c-2.42,1.08-4.85,2.54-7.51,2.38s-5.12-2.08-7.84-2.54c-4.4-.75-8.61,2.48-10.78,6.31a15.43,15.43,0,0,0-2,7.44v.44h0a10.88,10.88,0,0,0,2.86,7.6c1.9,2,4.72,3.32,5.51,5.91.32,1.05.24,2.19.53,3.26a2.91,2.91,0,0,0,.12.39l-.14.19a33,33,0,0,0-7,20.34,33.76,33.76,0,0,0,23.72,32c0,.33,0,.66,0,1,0,4-1.15,8.17-4.6,11.2L855,350.2s-18.08-2.15-24.6,24.27a45.05,45.05,0,0,0-1.12,13.4c.24,4-.31,11-5,20.07-7.41,14.52-5.72,47.85,9.44,51.15,14.31,3.12,19.91,1.82,20.5,1.67l0,.58c-.24,6.26-2.51,60.2-10.76,66.72-2.28,1.81-1.86,3,0,3.85,0,0,0,.35-.05,1-.25,4-1.52,19-7,27.52-6.41,9.9-5.74,67-5.74,67l-4.37,33.66s2.69,20.79,0,24.42c-2.41,3.23-5.61,80.14-6.28,96.82h-.28a8.12,8.12,0,0,0-6.48,4c-3.54,5.75-15.94,16.38-15.94,16.38-2.69,3.82-12.64,7.48-17.9,9.2a11.12,11.12,0,0,0-2,.88,10.67,10.67,0,0,0-4.52,4.76,5.11,5.11,0,0,0-.48,4c1.34,3.29,29.31,5.61,36.39,2.3,5.56-2.59,27.6-6,36.75-7.34a7.54,7.54,0,0,0,6.54-6.54,4.31,4.31,0,0,0-.84-3.27,0,0,0,0,0,0,0c-1.75-2.17-2.64-8.1-3-12a8.11,8.11,0,0,0,2.06-1.22,87.85,87.85,0,0,1,5-35.31c6.74-17.82,8.76-50.82,7.08-72.27,0,0,20.55-88.44,36.73-96.69h0c.25.32,8.1,10.39,9.1,41.58,1,31.68,12.46,52.47,12.46,52.47s-5.06,53.79,0,73.92l-6.61,31.75c-.49-.41-.8-.73-.8-.73s.2.88.47,2.29l-.14.68.29.06c.75,4,1.86,10.89,1.4,15-.26,2.31-.91,5.48-1.35,8.59-.7,4.89-.89,9.63,1.68,10.67,4.22,1.7,29,4,33.2-1.44a7.79,7.79,0,0,0,1.22-8.15,8.25,8.25,0,0,0-1.22-2.08s-6.58-10.75-4.72-18.33a5.58,5.58,0,0,0-.79-4.35c.29-3.72,1.79-20.94,5.67-35.56,4.22-15.88,13.11-50.7,6.57-73.59h0q-.37-1.35-.84-2.64a98.84,98.84,0,0,1-3.71-38.61,78.69,78.69,0,0,1,0-33.66c4.05-18.48,6.88-36.63,6.88-36.63s2.23-24.42.28-39.39c0-.32-.09-.64-.13-1l1.06-.24s-5.73-25.41-7.75-41.58c-.48-3.82-1.1-8.65-1.78-13.81a35.25,35.25,0,0,0,5.49-1.37c18.19-6.27,23.92-63,23.92-63v-18S985.1,364.39,963.87,352.18ZM828.31,790.42c-.56-.28-.89-.47-.89-.47h0Z" transform="matrix(0.4240520596504211, 0, 0, 0.4240520596504211, -118.92922560627602, 1.9570353949323192)" fill="url(#422858ff-741c-491e-b83f-4f975ae951a6)" style="stroke-width: 0.267823; vector-effect: non-scaling-stroke;"/>
  <path d="M952.89,679.71c7.89,22.69-1.32,59.52-5.6,76s-5.59,36.18-5.59,36.18c-16.77,2.63-28.94-.66-28.94-.66l6.91-33.87c-4.94-20.06,0-73.67,0-73.67s-11.18-20.72-12.17-52.29c-1-31.07-8.63-41.12-8.87-41.43h0c-15.78,8.22-35.84,96.36-35.84,96.36,1.64,21.37-.34,54.26-6.91,72a89,89,0,0,0-4.93,35.18c-2.3,2-5.5,2.28-9,1.72-9.39-1.52-20.65-9.61-20.65-9.61s3.61-96,6.25-99.64,0-24.34,0-24.34l4.27-33.54s-.66-56.9,5.59-66.76c5.4-8.52,6.64-23.5,6.88-27.43,0-.62,0-1,0-1l9.52-11.4s92.08-6.91,99,0c1.69,1.69,2.74,5.55,3.36,10.4,1.9,14.92-.28,39.25-.28,39.25s-2.76,18.09-6.71,36.5a80.12,80.12,0,0,0,0,33.55A100.43,100.43,0,0,0,952.89,679.71Z" transform="matrix(0.4240520596504211, 0, 0, 0.4240520596504211, -118.92922560627602, 1.9570353949323192)" fill="#65617d" style="stroke-width: 0.267823; vector-effect: non-scaling-stroke;"/>
  <path d="M947.13,823.91c-4.11,5.43-28.28,3.13-32.4,1.44-2.51-1-2.32-5.77-1.64-10.64.43-3.09,1.06-6.25,1.32-8.55.65-5.92-2-17.93-2-17.93s5.42,5.76,6.73,0c.58-2.52,2.6-3.81,4.7-4.46a12.28,12.28,0,0,1,8.54.53c4.27,1.86,11.39,5.81,10.12,11.15-1.81,7.55,4.6,18.27,4.6,18.27a8.32,8.32,0,0,1,1.2,2.06A7.89,7.89,0,0,1,947.13,823.91Z" transform="matrix(0.4240520596504211, 0, 0, 0.4240520596504211, -118.92922560627602, 1.9570353949323192)" fill="#a27772" style="stroke-width: 0.267823; vector-effect: non-scaling-stroke;"/>
  <path d="M947.13,823.91c-4.11,5.43-28.28,3.13-32.4,1.44-2.51-1-2.32-5.77-1.64-10.64,2.6,1.22,7,2.23,14.37,1.55a40.54,40.54,0,0,1,5.17-.16,120.23,120.23,0,0,0,15.7-.32A7.89,7.89,0,0,1,947.13,823.91Z" transform="matrix(0.4240520596504211, 0, 0, 0.4240520596504211, -118.92922560627602, 1.9570353949323192)" opacity="0.1" style="stroke-width: 0.267823; vector-effect: non-scaling-stroke;"/>
  <path d="M862.78,686.29c1.64,21.37-.34,54.26-6.91,72a89,89,0,0,0-4.93,35.18c-2.3,2-5.5,2.28-9,1.72,2-13.87,10.44-73.63,15.85-120.85,6.17-53.77,35-90.76,35-90.76l5.75,6.33C882.84,598.15,862.78,686.29,862.78,686.29Z" transform="matrix(0.4240520596504211, 0, 0, 0.4240520596504211, -118.92922560627602, 1.9570353949323192)" opacity="0.1" style="stroke-width: 0.267823; vector-effect: non-scaling-stroke;"/>
  <path d="M937.26,340.65l-4,19.73-19.67,33.05-24.25-10.36s-33-34.53-12.25-39.46a18.36,18.36,0,0,0,6.88-3.06c4.07-3.07,5.35-7.53,5.37-11.9A36.48,36.48,0,0,0,886,314.51l42.42-13.32a68.09,68.09,0,0,0-3,17.18c-.33,11.56,4,17.25,7.49,20A12.74,12.74,0,0,0,937.26,340.65Z" transform="matrix(0.4240520596504211, 0, 0, 0.4240520596504211, -118.92922560627602, 1.9570353949323192)" fill="#fbbebe" style="stroke-width: 0.267823; vector-effect: non-scaling-stroke;"/>
  <path d="M928.38,301.19a68.09,68.09,0,0,0-3,17.18,32.29,32.29,0,0,1-2.47,2.63,33.56,33.56,0,0,1-33.54,7.65A36.48,36.48,0,0,0,886,314.51Z" transform="matrix(0.4240520596504211, 0, 0, 0.4240520596504211, -118.92922560627602, 1.9570353949323192)" opacity="0.1" style="stroke-width: 0.267823; vector-effect: non-scaling-stroke;"/>
  <path d="M933.25,295.76a33.55,33.55,0,1,1-33.55-33.54A33.39,33.39,0,0,1,933.25,295.76Z" transform="matrix(0.4240520596504211, 0, 0, 0.4240520596504211, -118.92922560627602, 1.9570353949323192)" fill="#fbbebe" style="stroke-width: 0.267823; vector-effect: non-scaling-stroke;"/>
  <path d="M937.26,340.65l-4,19.73-19.67,33.05-24.25-10.36s-33-34.53-12.25-39.46a18.36,18.36,0,0,0,6.88-3.06c-3.74,10.28,11.7,31.67,11.7,31.67,1.8,2.65,5.92,1,5.92,1,9.95-1.51,28.26-30.12,31.25-34.88A12.74,12.74,0,0,0,937.26,340.65Z" transform="matrix(0.4240520596504211, 0, 0, 0.4240520596504211, -118.92922560627602, 1.9570353949323192)" opacity="0.1" style="stroke-width: 0.267823; vector-effect: non-scaling-stroke;"/>
  <path d="M956.25,531.93c-5.84,1.33-38.15,8.48-50.4,6.69-13.48-2-39.69-3.28-39.69-3.28s-16.69.9-21.83-1.45c0-.62,0-1,0-1l9.52-11.4s92.08-6.91,99,0C954.58,523.22,955.63,527.08,956.25,531.93Z" transform="matrix(0.4240520596504211, 0, 0, 0.4240520596504211, -118.92922560627602, 1.9570353949323192)" opacity="0.1" style="stroke-width: 0.267823; vector-effect: non-scaling-stroke;"/>
  <path d="M895.66,373.21s-17.35-24-10.81-33.4l-29.31,12s-17.64-2.14-24,24.19a45.81,45.81,0,0,0-1.09,13.36c.24,4-.3,11-4.83,20-7.23,14.47-5.59,47.69,9.21,51S854.88,462,854.88,462s-2,60.18-10.52,67.09,21.8,5.26,21.8,5.26,26.21,1.32,39.7,3.29,51.3-6.91,51.3-6.91-5.59-25.32-7.57-41.43S943,438.87,943,438.87l33.54-45.44s5.92-27.46-14.8-39.63-28.51-15.15-28.51-15.15-20.82,33.9-31.67,35.54C901.58,374.19,897.46,375.85,895.66,373.21Z" transform="matrix(0.4240520596504211, 0, 0, 0.4240520596504211, -118.92922560627602, 1.9570353949323192)" fill="#00bfd8" style="stroke-width: 0.267823; vector-effect: non-scaling-stroke;"/>
  <path d="M857.18,382.74s-.32,10.86,1.65,15.13,9.21,28,9.21,28H851.59s8.88-9.54,8.23-14.15S857.18,382.74,857.18,382.74Z" transform="matrix(0.4240520596504211, 0, 0, 0.4240520596504211, -118.92922560627602, 1.9570353949323192)" opacity="0.1" style="stroke-width: 0.267823; vector-effect: non-scaling-stroke;"/>
  <path d="M905.86,464.63s-36.32-8.88-39.7-16.44-12.71-24.49-12.71-24.49l3.83-5.16,17.66,13.86s21,16.77,30.92,18.42S905.86,464.63,905.86,464.63Z" transform="matrix(0.4240520596504211, 0, 0, 0.4240520596504211, -118.92922560627602, 1.9570353949323192)" fill="#fbbebe" style="stroke-width: 0.267823; vector-effect: non-scaling-stroke;"/>
  <path d="M905.86,464.63s-36.32-8.88-39.7-16.44-12.71-24.49-12.71-24.49l3.83-5.16,17.66,13.86s21,16.77,30.92,18.42S905.86,464.63,905.86,464.63Z" transform="matrix(0.4240520596504211, 0, 0, 0.4240520596504211, -118.92922560627602, 1.9570353949323192)" opacity="0.05" style="stroke-width: 0.267823; vector-effect: non-scaling-stroke;"/>
  <path d="M937.26,421.88v19.7H934.1a92.07,92.07,0,0,0-44.72,11.58l-5.94,3.29-1.59.89-10.2-23,9.54-8.55.49,0c2.33.23,12.42,1.07,16.7-.37,4.06-1.38,9.1-5.75,21.06-2.7,5.89,1.51,10.93,8.11,16.64,6.05Z" transform="matrix(0.4240520596504211, 0, 0, 0.4240520596504211, -118.92922560627602, 1.9570353949323192)" fill="#fbbebe" style="stroke-width: 0.267823; vector-effect: non-scaling-stroke;"/>
  <path d="M969,386l6.57,7.4v17.93s-5.59,56.56-23.34,62.81-49.46-3.62-49.46-3.62-8.19-21.7-4.36-23,33.85-9.24,33.85-9.24-.42-33.18,6.15-43.05c0,0-4.27-30.91,10.53-31.57S969,386,969,386Z" transform="matrix(0.4240520596504211, 0, 0, 0.4240520596504211, -118.92922560627602, 1.9570353949323192)" opacity="0.1" style="stroke-width: 0.267823; vector-effect: non-scaling-stroke;"/>
  <path d="M970,386l6.58,7.4v17.93s-5.59,56.56-23.35,62.81-49.46-3.62-49.46-3.62-8.19-21.7-4.35-23,33.85-9.24,33.85-9.24-.43-33.18,6.15-43.05c0,0-4.28-30.91,10.52-31.57S970,386,970,386Z" transform="matrix(0.4240520596504211, 0, 0, 0.4240520596504211, -118.92922560627602, 1.9570353949323192)" fill="#00bfd8" style="stroke-width: 0.267823; vector-effect: non-scaling-stroke;"/>
  <path d="M924.05,310a13.22,13.22,0,0,0-.75-6.41c-.93-2-3.1-3.51-5.22-3-2.81.66-4,4.32-6.78,5.2-2.33.74-4.87-.91-6-3.08s-1.14-4.72-1.14-7.16c0-2.74,0-5.49,0-8.24,0-3-.1-6.22-1.94-8.57-2.29-2.92-7.68-4.2-11.28-4.08a9.57,9.57,0,0,0-6.44,2.59c-1.92,1.64-4.15,2.84-6.77,2.41a5.83,5.83,0,0,1-4.72-4.08l0-.1A33.54,33.54,0,1,1,922.87,320,90.43,90.43,0,0,0,924.05,310Z" transform="matrix(0.4240520596504211, 0, 0, 0.4240520596504211, -118.92922560627602, 1.9570353949323192)" opacity="0.1" style="stroke-width: 0.267823; vector-effect: non-scaling-stroke;"/>
  <path d="M877.73,278.69A5.88,5.88,0,0,1,873,274.6c-.27-1.06-.2-2.19-.51-3.24-.77-2.59-3.53-3.93-5.38-5.9-3.7-3.93-3.46-10.39-.84-15.12,2.12-3.81,6.22-7,10.52-6.28,2.66.46,5,2.35,7.66,2.53s5-1.29,7.33-2.37A27.62,27.62,0,0,1,910,242.6a10.5,10.5,0,0,1,5,2.53,43.75,43.75,0,0,1,2.67,3.75c3.06,3.9,8.55,4.67,13.44,5.55s10.42,2.82,12,7.52c1.07,3.12,0,6.5-.58,9.74a2.94,2.94,0,0,0,.13,2c.77,1.26,2.68.73,4.12,1,2.77.59,3.48,4.16,3.59,7q.17,4.86.26,9.73a12.39,12.39,0,0,1-.29,3.6,12.71,12.71,0,0,1-2.79,4.53l-10.86,13.05c-4.82,5.78-9.93,12.52-9,20-2.28,1-5-.95-5.74-3.34s-.15-5,.36-7.41A90.85,90.85,0,0,0,924.05,309a13.18,13.18,0,0,0-.75-6.4c-.93-2-3.1-3.51-5.22-3-2.82.66-4,4.32-6.78,5.2-2.33.74-4.87-.91-6-3.08s-1.14-4.71-1.14-7.15l0-8.25c0-3-.1-6.22-1.94-8.57-2.29-2.92-7.68-4.2-11.28-4.08a9.57,9.57,0,0,0-6.43,2.59C882.58,277.91,880.35,279.12,877.73,278.69Z" transform="matrix(0.4240520596504211, 0, 0, 0.4240520596504211, -118.92922560627602, 1.9570353949323192)" fill="#7c5c5c" style="stroke-width: 0.267823; vector-effect: non-scaling-stroke;"/>
  <path d="M885.3,381.92l10.3,42.31S903.72,424.18,885.3,381.92Z" transform="matrix(0.4240520596504211, 0, 0, 0.4240520596504211, -118.92922560627602, 1.9570353949323192)" opacity="0.1" style="stroke-width: 0.267823; vector-effect: non-scaling-stroke;"/>
  <path d="M920.49,374.85s-13.48,22.08-8.22,44.92l2.51.18S910.3,409.38,920.49,374.85Z" transform="matrix(0.4240520596504211, 0, 0, 0.4240520596504211, -118.92922560627602, 1.9570353949323192)" opacity="0.1" style="stroke-width: 0.267823; vector-effect: non-scaling-stroke;"/>
  <path d="M929,499.82s16.56-5.48,17.76,7.23C946.8,507.05,943.68,498.34,929,499.82Z" transform="matrix(0.4240520596504211, 0, 0, 0.4240520596504211, -118.92922560627602, 1.9570353949323192)" opacity="0.1" style="stroke-width: 0.267823; vector-effect: non-scaling-stroke;"/>
  <path d="M881.19,426.81s-3.29,23,2.63,32.23c0,0-12,4.93-28.94,3.95l-2-36.18Z" transform="matrix(0.4240520596504211, 0, 0, 0.4240520596504211, -118.92922560627602, 1.9570353949323192)" opacity="0.1" style="stroke-width: 0.267823; vector-effect: non-scaling-stroke;"/>
  <path d="M883.44,456.45l-1.59.89-10.2-23,9.54-8.55h.49v0C881.53,426.93,878.87,446.7,883.44,456.45Z" transform="matrix(0.4240520596504211, 0, 0, 0.4240520596504211, -118.92922560627602, 1.9570353949323192)" opacity="0.1" style="stroke-width: 0.267823; vector-effect: non-scaling-stroke;"/>
  <path d="M881.19,425.83s-3.29,23,2.63,32.22c0,0-12,4.94-28.94,3.95l-11.51-36.17Z" transform="matrix(0.4240520596504211, 0, 0, 0.4240520596504211, -118.92922560627602, 1.9570353949323192)" fill="#00bfd8" style="stroke-width: 0.267823; vector-effect: non-scaling-stroke;"/>
  <path d="M852.75,809.91a7.45,7.45,0,0,1-6.39,6.52c-8.93,1.33-30.44,4.73-35.87,7.32-6.91,3.29-34.2,1-35.52-2.3a5.22,5.22,0,0,1,.47-4,10.54,10.54,0,0,1,4.41-4.74,11.7,11.7,0,0,1,2-.88c5.14-1.71,14.85-5.35,17.47-9.17,0,0,12.11-10.59,15.56-16.31a7.9,7.9,0,0,1,6.32-3.94c2.88-.13,6.09,1.32,7.41,7.63,0,0,15.77,9,20,1.11,0,0,.66,12.12,3.28,15.44v0A4.4,4.4,0,0,1,852.75,809.91Z" transform="matrix(0.4240520596504211, 0, 0, 0.4240520596504211, -118.92922560627602, 1.9570353949323192)" fill="#a27772" style="stroke-width: 0.267823; vector-effect: non-scaling-stroke;"/>
  <path d="M852.75,809.91a7.45,7.45,0,0,1-6.39,6.52c-8.93,1.33-30.44,4.73-35.87,7.32-6.91,3.29-34.2,1-35.52-2.3a5.22,5.22,0,0,1,.47-4,10.54,10.54,0,0,1,4.41-4.74c4.45,3,14.33,5.84,36.06,2.45,20.73-3.24,31-6.41,36-8.57v0A4.4,4.4,0,0,1,852.75,809.91Z" transform="matrix(0.4240520596504211, 0, 0, 0.4240520596504211, -118.92922560627602, 1.9570353949323192)" opacity="0.1" style="stroke-width: 0.267823; vector-effect: non-scaling-stroke;"/>
  <g opacity="0.1" transform="matrix(0.4240520596504211, 0, 0, 0.4240520596504211, -105.71576325352333, 10.497439159161587)" style="stroke-width: 0.267823; vector-effect: non-scaling-stroke;">
    <path d="M942.48,272.15l0-.16c.47-2.46,1.18-5,1-7.47a49.31,49.31,0,0,1-1,6A3.64,3.64,0,0,0,942.48,272.15Z" transform="translate(-31.16 -20.14)"/>
    <path d="M923.29,302.93a9.51,9.51,0,0,1,.81,3.76,11.34,11.34,0,0,0-.81-5.24c-.92-2-3.09-3.51-5.21-3-2.82.66-4,4.32-6.79,5.2-2.32.74-4.86-.91-6-3.08s-1.14-4.72-1.14-7.16c0-2.75,0-5.49,0-8.24,0-3-.1-6.22-1.94-8.57-2.3-2.93-7.68-4.2-11.28-4.09a9.58,9.58,0,0,0-6.44,2.6c-1.93,1.64-4.15,2.84-6.78,2.41a5.86,5.86,0,0,1-4.72-4.08c-.27-1.06-.2-2.2-.51-3.25-.77-2.58-3.53-3.93-5.38-5.89a10.77,10.77,0,0,1-2.77-7,11.21,11.21,0,0,0,2.77,8.43c1.85,2,4.61,3.31,5.38,5.89.31,1,.24,2.19.51,3.25a5.86,5.86,0,0,0,4.72,4.08c2.63.43,4.85-.77,6.78-2.41a9.58,9.58,0,0,1,6.44-2.6c3.6-.11,9,1.16,11.28,4.09,1.84,2.35,1.93,5.58,1.94,8.57,0,2.75,0,5.49,0,8.24,0,2.44,0,5,1.14,7.15s3.65,3.83,6,3.09c2.76-.88,4-4.54,6.79-5.2C920.2,299.42,922.37,301,923.29,302.93Z" transform="translate(-31.16 -20.14)"/>
    <path d="M950.32,293.88a12.64,12.64,0,0,1-2.8,4.52l-10.86,13.05c-4.57,5.49-9.4,11.85-9,18.86.33-6.43,4.81-12.28,9-17.38l10.86-13.05a12.64,12.64,0,0,0,2.8-4.52,12.48,12.48,0,0,0,.29-3.61A9.5,9.5,0,0,1,950.32,293.88Z" transform="translate(-31.16 -20.14)"/>
    <path d="M922,328.11a7.69,7.69,0,0,1-.33-1.76,8.87,8.87,0,0,0,.33,3.24c.74,2.38,3.45,4.35,5.74,3.33a14,14,0,0,1-.12-1.44C925.34,332.39,922.7,330.45,922,328.11Z" transform="translate(-31.16 -20.14)"/>
  </g>
  <path d="M812.69,789.36s3.44,6,15.9.72" transform="matrix(0.4240520596504211, 0, 0, 0.4240520596504211, -118.92922560627602, 1.9570353949323192)" opacity="0.1" style="stroke-width: 0.267823; vector-effect: non-scaling-stroke;"/>
  <path d="M918,790.82s10.74,12.65,24.28,4.15" transform="matrix(0.4240520596504211, 0, 0, 0.4240520596504211, -118.92922560627602, 1.9570353949323192)" opacity="0.1" style="stroke-width: 0.267823; vector-effect: non-scaling-stroke;"/>
  <path d="M949.26,641.23s-7.59,4.74-7.83,7.45,3.92-2,3.92-2Z" transform="matrix(0.4240520596504211, 0, 0, 0.4240520596504211, -118.92922560627602, 1.9570353949323192)" opacity="0.1" style="stroke-width: 0.267823; vector-effect: non-scaling-stroke;"/>
  <path d="M952.26,677.59a15.87,15.87,0,0,1-9.35,3.65c-5.68.25-5.2,7.65-1.49,5.43S952.26,677.59,952.26,677.59Z" transform="matrix(0.4240520596504211, 0, 0, 0.4240520596504211, -118.92922560627602, 1.9570353949323192)" opacity="0.1" style="stroke-width: 0.267823; vector-effect: non-scaling-stroke;"/>
  <path d="M953.7,682.34s-3.64,17.89-6.6,14.44" transform="matrix(0.4240520596504211, 0, 0, 0.4240520596504211, -118.92922560627602, 1.9570353949323192)" opacity="0.1" style="stroke-width: 0.267823; vector-effect: non-scaling-stroke;"/>
  <polygon points="292.3 473.47 292.22 477.12 291.4 473.63 292.3 473.47" fill="#fdc2cc" transform="matrix(0.4240520596504211, 0, 0, 0.4240520596504211, -105.71576325352333, 10.497439159161587)" style="stroke-width: 0.267823; vector-effect: non-scaling-stroke;"/>
  <polygon points="292.3 473.47 292.22 477.12 291.4 473.63 292.3 473.47" opacity="0.05" transform="matrix(0.4240520596504211, 0, 0, 0.4240520596504211, -105.71576325352333, 10.497439159161587)" style="stroke-width: 0.267823; vector-effect: non-scaling-stroke;"/>
  <path d="M615.1,765.85c.23-2,.56-4,.92-6,1.58-8.64-.83-16.88-2-20.28h0c-.37-1.05-.64-1.64-.64-1.64-6.37-1.74-31.48,17.74-40.63,25.08-3.17,0-6.61.14-10.37.39-1.64.12-3.28.16-4.92.13-1.47,0-3.56,0-6,0-8.49-6.84-34.77-27.41-41.31-25.63,0,0-.27.59-.64,1.64h0c-1.22,3.4-3.63,11.64-2.05,20.28.36,2,.69,4,.92,6,.49,4.39,2.33,12.82,9,18.51,1.43,10.4,6.78,24.07,10.9,32.37a23.18,23.18,0,0,0,1.4,4.57c-1.7,6.56-3.66,15.12-3.1,18,0,0-8.88-2.15-9.78,8.54,0,.1,0,.22,0,.33-3.21,1.47-7.22,4.84-2.71,11.9a4.63,4.63,0,0,0,2.32,1.89c.8.28,1.58.28,1.5-.84l5.55,6.25s10.06,1.16,10.18-4.68l.59.09c1.35.2,2.76.37,4.21.52l.7,2.31s-7.55-.16-5.49,4.49c0,0,1.9,1.76,2.55,1.12,0,0-1,3.05,2.94,3.05,0,0,4.23,2.24,5.88.64s5.07-4,5.39-5c.09-.27.13-2.64.15-5.92l.65,0c8.43.2,17.38-.07,25.52-.51l.66,0c0,3.55.05,6.17.14,6.45.33,1,3.76,3.37,5.4,5s5.87-.64,5.87-.64c3.92,0,2.94-3.05,2.94-3.05.66.64,2.56-1.12,2.56-1.12,2.06-4.65-5.5-4.49-5.5-4.49l.9-3,4.17-.35.66-.06c-.4,6.35,10.17,5.13,10.17,5.13l5.56-6.25c-.09,1.12.69,1.12,1.49.84A4.59,4.59,0,0,0,614,860c6.81-10.65-5.77-12.91-5.77-12.91a6.17,6.17,0,0,0-1.19-.19c0-.18,0-.37.05-.55h0a21.94,21.94,0,0,0,.08-4.22c-.47-1.93-3.57-5-7.49-5.45-2.56-.32-2.61-12.08-2.35-20.23a23.27,23.27,0,0,0,.4-4.64,24.48,24.48,0,0,0-1-7.43c5-8.48,9-17.37,9.45-20C612.77,778.64,614.61,770.24,615.1,765.85Z" transform="matrix(0.4240520596504211, 0, 0, 0.4240520596504211, -118.92922560627602, 1.9570353949323192)" fill="url(#9b8149d4-8e0d-43dc-bd85-6bf0bb4ef8aa)" style="stroke-width: 0.267823; vector-effect: non-scaling-stroke;"/>
  <path d="M605.42,846.9h0c-.4,5.54-1.47,14.43-1.47,14.43s-4.45.54-11.33,1.16l-4.67.4c-3.58.29-7.6.57-11.85.81-7.85.43-16.47.7-24.6.5-4.06-.09-8-.3-11.65-.66-1.63-.16-3.21-.35-4.71-.57-9.32-1.39-16-4.05-16.57-8.72a27,27,0,0,1-.21-6c.87-10.5,9.42-8.38,9.42-8.38-.55-2.9,1.52-11.91,3.2-18.43,1.06-4.11,2-7.23,2-7.23l60.12-4h.2a2.94,2.94,0,0,1,2.94,3.09c-.36,7.21-.87,23.72,2.08,24.09,3.78.47,6.77,3.46,7.23,5.35A22.44,22.44,0,0,1,605.42,846.9Z" transform="matrix(0.4240520596504211, 0, 0, 0.4240520596504211, -118.92922560627602, 1.9570353949323192)" fill="#00bfd8" style="stroke-width: 0.267823; vector-effect: non-scaling-stroke;"/>
  <path d="M554.36,767.76s-22.67,27.29-33.59,19.73c-.26-.18-.51-.36-.75-.55-7.34-5.56-9.27-14.52-9.78-19.07-.22-2-.54-3.93-.89-5.88-1.51-8.49.8-16.57,2-19.91h0c.36-1,.61-1.61.61-1.61C519.51,738.37,554.36,767.76,554.36,767.76Z" transform="matrix(0.4240520596504211, 0, 0, 0.4240520596504211, -118.92922560627602, 1.9570353949323192)" fill="#00bfd8" style="stroke-width: 0.267823; vector-effect: non-scaling-stroke;"/>
  <path d="M542.18,770.28s-7.14,5-17.21,13.22a36.36,36.36,0,0,1-5,3.44c-7.34-5.56-9.27-14.52-9.78-19.07-.22-2-.54-3.93-.89-5.88-1.51-8.49.8-16.57,2-19.91h0C525.42,743.06,542.18,770.28,542.18,770.28Z" transform="matrix(0.4240520596504211, 0, 0, 0.4240520596504211, -118.92922560627602, 1.9570353949323192)" fill="#00bfd8" style="stroke-width: 0.267823; vector-effect: non-scaling-stroke;"/>
  <path d="M542.18,770.28s-7.14,5-17.21,13.22a36.36,36.36,0,0,1-5,3.44c-7.34-5.56-9.27-14.52-9.78-19.07-.22-2-.54-3.93-.89-5.88-1.51-8.49.8-16.57,2-19.91h0C525.42,743.06,542.18,770.28,542.18,770.28Z" transform="matrix(0.4240520596504211, 0, 0, 0.4240520596504211, -118.92922560627602, 1.9570353949323192)" fill="#fff" opacity="0.5" style="stroke-width: 0.267823; vector-effect: non-scaling-stroke;"/>
  <path d="M534.41,767.59s-3.81,2.69-9.19,7.06a19.35,19.35,0,0,1-2.64,1.83c-3.91-3-5-7.75-5.22-10.17-.11-1.06-.28-2.1-.47-3.15A21.86,21.86,0,0,1,518,752.54h0C525.47,753.06,534.41,767.59,534.41,767.59Z" transform="matrix(0.4240520596504211, 0, 0, 0.4240520596504211, -118.92922560627602, 1.9570353949323192)" opacity="0.1" style="stroke-width: 0.267823; vector-effect: non-scaling-stroke;"/>
  <path d="M569.05,767.76s22.67,27.29,33.59,19.73c.25-.18.51-.36.75-.55,7.34-5.56,9.27-14.52,9.78-19.07.22-2,.54-3.93.88-5.88,1.52-8.49-.8-16.57-2-19.91h0c-.36-1-.62-1.61-.62-1.61C603.9,738.37,569.05,767.76,569.05,767.76Z" transform="matrix(0.4240520596504211, 0, 0, 0.4240520596504211, -118.92922560627602, 1.9570353949323192)" fill="#00bfd8" style="stroke-width: 0.267823; vector-effect: non-scaling-stroke;"/>
  <path d="M581.22,770.28s7.15,5,17.22,13.22a36.36,36.36,0,0,0,4.95,3.44c7.34-5.56,9.27-14.52,9.78-19.07.22-2,.54-3.93.88-5.88,1.52-8.49-.8-16.57-2-19.91h0C598,743.06,581.22,770.28,581.22,770.28Z" transform="matrix(0.4240520596504211, 0, 0, 0.4240520596504211, -118.92922560627602, 1.9570353949323192)" fill="#00bfd8" style="stroke-width: 0.267823; vector-effect: non-scaling-stroke;"/>
  <path d="M581.22,770.28s7.15,5,17.22,13.22a36.36,36.36,0,0,0,4.95,3.44c7.34-5.56,9.27-14.52,9.78-19.07.22-2,.54-3.93.88-5.88,1.52-8.49-.8-16.57-2-19.91h0C598,743.06,581.22,770.28,581.22,770.28Z" transform="matrix(0.4240520596504211, 0, 0, 0.4240520596504211, -118.92922560627602, 1.9570353949323192)" fill="#fff" opacity="0.5" style="stroke-width: 0.267823; vector-effect: non-scaling-stroke;"/>
  <path d="M589.05,767.57s3.79,2.68,9.13,7a18.31,18.31,0,0,0,2.63,1.82c3.89-2.95,4.92-7.7,5.19-10.11.11-1,.28-2.09.47-3.13a21.9,21.9,0,0,0-1.05-10.56h0C597.94,753.13,589.05,767.57,589.05,767.57Z" transform="matrix(0.4240520596504211, 0, 0, 0.4240520596504211, -118.92922560627602, 1.9570353949323192)" opacity="0.1" style="stroke-width: 0.267823; vector-effect: non-scaling-stroke;"/>
  <path d="M593.06,810.23c-2.86,4.52-5.9,8.6-8.68,11.06-9,8-47.86,4.82-50.38,4.41-.53-.09-1.63-1.66-3-4.21,1.06-4.11,2-7.23,2-7.23Z" transform="matrix(0.4240520596504211, 0, 0, 0.4240520596504211, -118.92922560627602, 1.9570353949323192)" opacity="0.1" style="stroke-width: 0.267823; vector-effect: non-scaling-stroke;"/>
  <path d="M562.3,765.47c-1.58.11-3.16.15-4.75.12-8.11-.14-35.43.22-38.46,11.25-3.57,13,12.39,47.81,14.9,48.23s41.36,3.57,50.39-4.41,20.78-33,20.15-35.27C604.53,785.39,615.73,761.77,562.3,765.47Z" transform="matrix(0.4240520596504211, 0, 0, 0.4240520596504211, -118.92922560627602, 1.9570353949323192)" fill="#00bfd8" style="stroke-width: 0.267823; vector-effect: non-scaling-stroke;"/>
  <path d="M561.44,786.55s-20-3.08-29.38,16.6a24,24,0,0,0,1.77,24.19c3.12,4.39,7.7,7.66,14.07,5C562.06,826.51,561.44,786.55,561.44,786.55Z" transform="matrix(0.4240520596504211, 0, 0, 0.4240520596504211, -118.92922560627602, 1.9570353949323192)" opacity="0.1" style="stroke-width: 0.267823; vector-effect: non-scaling-stroke;"/>
  <path d="M560.81,785.29s-20-3.08-29.38,16.6a24,24,0,0,0,1.77,24.19c3.12,4.39,7.7,7.66,14.07,5C561.43,825.25,560.81,785.29,560.81,785.29Z" transform="matrix(0.4240520596504211, 0, 0, 0.4240520596504211, -118.92922560627602, 1.9570353949323192)" opacity="0.1" style="stroke-width: 0.267823; vector-effect: non-scaling-stroke;"/>
  <path d="M560.81,785.92s-20-3.08-29.38,16.6a24,24,0,0,0,1.77,24.19c3.12,4.39,7.7,7.66,14.07,5C561.43,825.88,560.81,785.92,560.81,785.92Z" transform="matrix(0.4240520596504211, 0, 0, 0.4240520596504211, -118.92922560627602, 1.9570353949323192)" fill="#00bfd8" style="stroke-width: 0.267823; vector-effect: non-scaling-stroke;"/>
  <path d="M560.81,785.92s-20-3.08-29.38,16.6a24,24,0,0,0,1.77,24.19c3.12,4.39,7.7,7.66,14.07,5C561.43,825.88,560.81,785.92,560.81,785.92Z" transform="matrix(0.4240520596504211, 0, 0, 0.4240520596504211, -118.92922560627602, 1.9570353949323192)" fill="#fff" opacity="0.5" style="stroke-width: 0.267823; vector-effect: non-scaling-stroke;"/>
  <path d="M539.24,803.13s-2.73,2.52-1.68,3.15S539.24,803.13,539.24,803.13Z" transform="matrix(0.4240520596504211, 0, 0, 0.4240520596504211, -118.92922560627602, 1.9570353949323192)" fill="#3f2b3b" style="stroke-width: 0.267823; vector-effect: non-scaling-stroke;"/>
  <path d="M542.18,806.35s-1.49,3.29-.43,3.65,1.69-2.36,1.69-2.36Z" transform="matrix(0.4240520596504211, 0, 0, 0.4240520596504211, -118.92922560627602, 1.9570353949323192)" fill="#3f2b3b" style="stroke-width: 0.267823; vector-effect: non-scaling-stroke;"/>
  <path d="M535.59,811.32s-1.46,3.88,0,3.88S535.59,811.32,535.59,811.32Z" transform="matrix(0.4240520596504211, 0, 0, 0.4240520596504211, -118.92922560627602, 1.9570353949323192)" fill="#3f2b3b" style="stroke-width: 0.267823; vector-effect: non-scaling-stroke;"/>
  <path d="M533.78,821.71s2.92,7.46,10.52,6.93" transform="matrix(0.4240520596504211, 0, 0, 0.4240520596504211, -118.92922560627602, 1.9570353949323192)" fill="none" stroke="#3f2b3b" stroke-miterlimit="10" style="stroke-width: 0.267823; vector-effect: non-scaling-stroke;"/>
  <path d="M540.61,823.91s3,2.94,6.29.84" transform="matrix(0.4240520596504211, 0, 0, 0.4240520596504211, -118.92922560627602, 1.9570353949323192)" fill="none" stroke="#3f2b3b" stroke-miterlimit="10" style="stroke-width: 0.267823; vector-effect: non-scaling-stroke;"/>
  <path d="M564,786.55s20-3.08,29.38,16.6a24,24,0,0,1-1.77,24.19c-3.11,4.39-7.7,7.66-14.07,5C563.34,826.51,564,786.55,564,786.55Z" transform="matrix(0.4240520596504211, 0, 0, 0.4240520596504211, -118.92922560627602, 1.9570353949323192)" opacity="0.1" style="stroke-width: 0.267823; vector-effect: non-scaling-stroke;"/>
  <path d="M564.59,785.29s20-3.08,29.38,16.6a24,24,0,0,1-1.77,24.19c-3.11,4.39-7.7,7.66-14.07,5C564,825.25,564.59,785.29,564.59,785.29Z" transform="matrix(0.4240520596504211, 0, 0, 0.4240520596504211, -118.92922560627602, 1.9570353949323192)" opacity="0.1" style="stroke-width: 0.267823; vector-effect: non-scaling-stroke;"/>
  <path d="M564.59,785.92s20-3.08,29.38,16.6a24,24,0,0,1-1.77,24.19c-3.11,4.39-7.7,7.66-14.07,5C564,825.88,564.59,785.92,564.59,785.92Z" transform="matrix(0.4240520596504211, 0, 0, 0.4240520596504211, -118.92922560627602, 1.9570353949323192)" fill="#00bfd8" style="stroke-width: 0.267823; vector-effect: non-scaling-stroke;"/>
  <path d="M564.59,785.92s20-3.08,29.38,16.6a24,24,0,0,1-1.77,24.19c-3.11,4.39-7.7,7.66-14.07,5C564,825.88,564.59,785.92,564.59,785.92Z" transform="matrix(0.4240520596504211, 0, 0, 0.4240520596504211, -118.92922560627602, 1.9570353949323192)" fill="#fff" opacity="0.5" style="stroke-width: 0.267823; vector-effect: non-scaling-stroke;"/>
  <path d="M586.16,803.13s2.73,2.52,1.68,3.15S586.16,803.13,586.16,803.13Z" transform="matrix(0.4240520596504211, 0, 0, 0.4240520596504211, -118.92922560627602, 1.9570353949323192)" fill="#3f2b3b" style="stroke-width: 0.267823; vector-effect: non-scaling-stroke;"/>
  <path d="M583.22,806.35s1.49,3.29.43,3.65-1.69-2.36-1.69-2.36Z" transform="matrix(0.4240520596504211, 0, 0, 0.4240520596504211, -118.92922560627602, 1.9570353949323192)" fill="#3f2b3b" style="stroke-width: 0.267823; vector-effect: non-scaling-stroke;"/>
  <path d="M589.82,811.32s1.45,3.88,0,3.88S589.82,811.32,589.82,811.32Z" transform="matrix(0.4240520596504211, 0, 0, 0.4240520596504211, -118.92922560627602, 1.9570353949323192)" fill="#3f2b3b" style="stroke-width: 0.267823; vector-effect: non-scaling-stroke;"/>
  <path d="M591.62,821.71s-2.92,7.46-10.52,6.93" transform="matrix(0.4240520596504211, 0, 0, 0.4240520596504211, -118.92922560627602, 1.9570353949323192)" fill="none" stroke="#3f2b3b" stroke-miterlimit="10" style="stroke-width: 0.267823; vector-effect: non-scaling-stroke;"/>
  <path d="M584.8,823.91s-3,2.94-6.3.84" transform="matrix(0.4240520596504211, 0, 0, 0.4240520596504211, -118.92922560627602, 1.9570353949323192)" fill="none" stroke="#3f2b3b" stroke-miterlimit="10" style="stroke-width: 0.267823; vector-effect: non-scaling-stroke;"/>
  <path d="M553.2,842.91c.53-.1,10.5-4.41,20.78,0Z" transform="matrix(0.4240520596504211, 0, 0, 0.4240520596504211, -118.92922560627602, 1.9570353949323192)" fill="#3f2b3b" style="stroke-width: 0.267823; vector-effect: non-scaling-stroke;"/>
  <path d="M535.14,863c-9.32-1.39-16-4.05-16.57-8.72a27,27,0,0,1-.21-6,13.46,13.46,0,0,1,3.56-1.3c1.69-.47,3.78-.15,8.19,1.11s4.09,6.45,5,13.22A5.59,5.59,0,0,1,535.14,863Z" transform="matrix(0.4240520596504211, 0, 0, 0.4240520596504211, -118.92922560627602, 1.9570353949323192)" opacity="0.1" style="stroke-width: 0.267823; vector-effect: non-scaling-stroke;"/>
  <path d="M521.29,847.63s-12.12,2.22-5.56,12.68a4.47,4.47,0,0,0,2.24,1.85c.77.27,1.51.27,1.43-.83l5.36,6.14s10.7,1.26,9.76-5.51-.63-12-5-13.22S523,847.16,521.29,847.63Z" transform="matrix(0.4240520596504211, 0, 0, 0.4240520596504211, -118.92922560627602, 1.9570353949323192)" fill="#00bfd8" style="stroke-width: 0.267823; vector-effect: non-scaling-stroke;"/>
  <path d="M524.18,854.67s2.57,5.87,6.14.94" transform="matrix(0.4240520596504211, 0, 0, 0.4240520596504211, -118.92922560627602, 1.9570353949323192)" fill="none" stroke="#3f2b3b" stroke-miterlimit="10" style="stroke-width: 0.267823; vector-effect: non-scaling-stroke;"/>
  <path d="M518.28,857s1.33,5.56,6.37,1.42" transform="matrix(0.4240520596504211, 0, 0, 0.4240520596504211, -118.92922560627602, 1.9570353949323192)" fill="none" stroke="#3f2b3b" stroke-miterlimit="10" style="stroke-width: 0.267823; vector-effect: non-scaling-stroke;"/>
  <path d="M605.42,846.9h0c-.4,5.54-1.47,14.43-1.47,14.43s-4.45.54-11.33,1.16a5.81,5.81,0,0,1,0-1.16c.94-6.77.63-12,5-13.22C601.72,847,603.81,846.59,605.42,846.9Z" transform="matrix(0.4240520596504211, 0, 0, 0.4240520596504211, -118.92922560627602, 1.9570353949323192)" opacity="0.1" style="stroke-width: 0.267823; vector-effect: non-scaling-stroke;"/>
  <path d="M606.52,847.63s12.13,2.22,5.57,12.68a4.51,4.51,0,0,1-2.24,1.85c-.77.27-1.52.27-1.44-.83l-5.35,6.14s-10.71,1.26-9.76-5.51.63-12,5-13.22S604.84,847.16,606.52,847.63Z" transform="matrix(0.4240520596504211, 0, 0, 0.4240520596504211, -118.92922560627602, 1.9570353949323192)" fill="#00bfd8" style="stroke-width: 0.267823; vector-effect: non-scaling-stroke;"/>
  <path d="M603.64,854.67s-2.58,5.87-6.14.94" transform="matrix(0.4240520596504211, 0, 0, 0.4240520596504211, -118.92922560627602, 1.9570353949323192)" fill="none" stroke="#3f2b3b" stroke-miterlimit="10" style="stroke-width: 0.267823; vector-effect: non-scaling-stroke;"/>
  <path d="M609.54,857s-1.34,5.56-6.38,1.42" transform="matrix(0.4240520596504211, 0, 0, 0.4240520596504211, -118.92922560627602, 1.9570353949323192)" fill="none" stroke="#3f2b3b" stroke-miterlimit="10" style="stroke-width: 0.267823; vector-effect: non-scaling-stroke;"/>
  <path d="M551.5,864.2c-4.06-.09-8-.3-11.65-.66l-3.63-12.22a7.93,7.93,0,0,1-.33-2.23,7.78,7.78,0,0,1,15.55-.05C551.48,853.8,551.52,859.83,551.5,864.2Z" transform="matrix(0.4240520596504211, 0, 0, 0.4240520596504211, -118.92922560627602, 1.9570353949323192)" opacity="0.1" style="stroke-width: 0.267823; vector-effect: non-scaling-stroke;"/>
  <path d="M535.59,851.32l4.28,14.42s-7.28-.16-5.29,4.41c0,0,1.83,1.73,2.46,1.1,0,0-.95,3,2.83,3,0,0,4.08,2.21,5.66.63s4.89-3.94,5.21-4.88c.2-.62.14-12.68.07-21a7.76,7.76,0,0,0-7.77-7.7h0A7.77,7.77,0,0,0,535.59,851.32Z" transform="matrix(0.4240520596504211, 0, 0, 0.4240520596504211, -118.92922560627602, 1.9570353949323192)" fill="#00bfd8" style="stroke-width: 0.267823; vector-effect: non-scaling-stroke;"/>
  <path d="M541.37,869.47s-3.18,3-1.5,4.77" transform="matrix(0.4240520596504211, 0, 0, 0.4240520596504211, -118.92922560627602, 1.9570353949323192)" fill="none" stroke="#3f2b3b" stroke-miterlimit="10" style="stroke-width: 0.267823; vector-effect: non-scaling-stroke;"/>
  <path d="M540,867.56s-2.94,1-2.94,3.69" transform="matrix(0.4240520596504211, 0, 0, 0.4240520596504211, -118.92922560627602, 1.9570353949323192)" fill="none" stroke="#3f2b3b" stroke-miterlimit="10" style="stroke-width: 0.267823; vector-effect: non-scaling-stroke;"/>
  <path d="M591.71,849.09a7.91,7.91,0,0,1-.32,2.23L588,862.89c-3.58.29-7.6.57-11.85.81,0-4.32,0-10.07.07-14.66a7.77,7.77,0,0,1,15.54.05Z" transform="matrix(0.4240520596504211, 0, 0, 0.4240520596504211, -118.92922560627602, 1.9570353949323192)" opacity="0.1" style="stroke-width: 0.267823; vector-effect: non-scaling-stroke;"/>
  <path d="M592,851.32l-4.28,14.42s7.29-.16,5.3,4.41c0,0-1.83,1.73-2.46,1.1,0,0,.94,3-2.84,3,0,0-4.08,2.21-5.66.63s-4.88-3.94-5.2-4.88c-.2-.62-.14-12.68-.07-21a7.76,7.76,0,0,1,7.77-7.7h0A7.77,7.77,0,0,1,592,851.32Z" transform="matrix(0.4240520596504211, 0, 0, 0.4240520596504211, -118.92922560627602, 1.9570353949323192)" fill="#00bfd8" style="stroke-width: 0.267823; vector-effect: non-scaling-stroke;"/>
  <path d="M586.23,869.47s3.18,3,1.5,4.77" transform="matrix(0.4240520596504211, 0, 0, 0.4240520596504211, -118.92922560627602, 1.9570353949323192)" fill="none" stroke="#3f2b3b" stroke-miterlimit="10" style="stroke-width: 0.267823; vector-effect: non-scaling-stroke;"/>
  <path d="M587.63,867.56s2.94,1,2.94,3.69" transform="matrix(0.4240520596504211, 0, 0, 0.4240520596504211, -118.92922560627602, 1.9570353949323192)" fill="none" stroke="#3f2b3b" stroke-miterlimit="10" style="stroke-width: 0.267823; vector-effect: non-scaling-stroke;"/>
  <path d="M560.82,782.77s-14.81-.47-15.28,11,23.14,6.61,23.14,6.61,9.92-1.33,8.19-8.3S571.53,783.4,560.82,782.77Z" transform="matrix(0.4240520596504211, 0, 0, 0.4240520596504211, -118.92922560627602, 1.9570353949323192)" opacity="0.1" style="stroke-width: 0.267823; vector-effect: non-scaling-stroke;"/>
  <path d="M560.82,781.51s-14.81-.47-15.28,11,23.14,6.61,23.14,6.61,9.92-1.33,8.19-8.3S571.53,782.14,560.82,781.51Z" transform="matrix(0.4240520596504211, 0, 0, 0.4240520596504211, -118.92922560627602, 1.9570353949323192)" opacity="0.1" style="stroke-width: 0.267823; vector-effect: non-scaling-stroke;"/>
  <path d="M560.82,782.14s-14.81-.47-15.28,11,23.14,6.61,23.14,6.61,9.92-1.33,8.19-8.3S571.53,782.77,560.82,782.14Z" transform="matrix(0.4240520596504211, 0, 0, 0.4240520596504211, -118.92922560627602, 1.9570353949323192)" fill="#3f2b3b" style="stroke-width: 0.267823; vector-effect: non-scaling-stroke;"/>
  <path d="M527.78,839.92s5,1.78,6,5.19" transform="matrix(0.4240520596504211, 0, 0, 0.4240520596504211, -118.92922560627602, 1.9570353949323192)" opacity="0.1" style="stroke-width: 0.267823; vector-effect: non-scaling-stroke;"/>
  <path d="M598.28,837.4s-3.55,1.49-3.3,7.71" transform="matrix(0.4240520596504211, 0, 0, 0.4240520596504211, -118.92922560627602, 1.9570353949323192)" opacity="0.1" style="stroke-width: 0.267823; vector-effect: non-scaling-stroke;"/>
  <ellipse cx="527.78" cy="862.49" rx="2.31" ry="3.83" transform="matrix(0.3689252138137818, -0.2120260149240494, 0.21202601492404943, 0.3689252138137818, -271.81267516071944, 162.85928703666409)" fill="#00bfd8" style="stroke-width: 0.269672; vector-effect: non-scaling-stroke;"/>
  <ellipse cx="600.25" cy="862.49" rx="3.83" ry="2.31" transform="matrix(0.2120260149240494, -0.3672395646572113, 0.36723956465721136, 0.21202601492404938, -308.3998791402116, 405.2601201665467)" fill="#00bfd8" style="stroke-width: 0.267828; vector-effect: non-scaling-stroke;"/>
  <ellipse cx="527.78" cy="862.49" rx="2.31" ry="3.83" transform="matrix(0.3689252138137818, -0.2120260149240494, 0.21202601492404943, 0.3689252138137818, -271.81267516071944, 162.85928703666409)" fill="#fff" opacity="0.5" style="stroke-width: 0.269672; vector-effect: non-scaling-stroke;"/>
  <ellipse cx="600.25" cy="862.49" rx="3.83" ry="2.31" transform="matrix(0.2120260149240494, -0.3672395646572113, 0.36723956465721136, 0.21202601492404938, -308.3998791402116, 405.2601201665467)" fill="#fff" opacity="0.5" style="stroke-width: 0.267828; vector-effect: non-scaling-stroke;"/>
  <ellipse cx="152.69" cy="-349.68" rx="11.42" ry="4.942" fill="#00bfd8" opacity="0.1" style="stroke-width: 0.267823; vector-effect: non-scaling-stroke;" transform="matrix(0.9999999999999999, 0, 0, -0.9999999999999999, -111.89836852009444, 1.963153613812466)"/>
  <ellipse cx="148.876" cy="339.545" rx="11.42" ry="1.929" fill="#00bfd8" opacity="0.1" style="stroke-width: 0.267823; vector-effect: non-scaling-stroke;" transform="matrix(0.9999999999999999, 0, 0, 0.9999999999999999, -111.89836852009444, 1.963153613812466)"/>
  <ellipse cx="136.986" cy="315.065" rx="17.051" ry="2.884" fill="#00bfd8" style="stroke-width: 0.267823; vector-effect: non-scaling-stroke;" transform="matrix(0.9999999999999999, 0, 0, 0.9999999999999999, -111.89836852009444, 1.963153613812466)"/>
  <path d="M 129.934 310.349 C 129.154 309.717 128.586 308.862 128.306 307.898 C 128.098 306.923 128.513 305.757 129.442 305.4 C 130.485 305.002 131.6 305.723 132.444 306.452 C 133.288 307.181 134.259 308.017 135.366 307.864 C 134.208 306.814 133.687 305.233 133.992 303.7 C 134.038 303.387 134.17 303.094 134.374 302.852 C 134.95 302.233 136.002 302.5 136.698 302.988 C 138.898 304.54 139.518 307.533 139.526 310.23 C 139.751 309.255 139.564 308.246 139.568 307.262 C 139.573 306.278 139.848 305.142 140.688 304.624 C 141.207 304.337 141.791 304.191 142.384 304.2 C 143.376 304.166 144.479 304.264 145.157 304.989 C 146.006 305.888 145.781 307.402 145.047 308.382 C 144.314 309.361 143.203 309.993 142.181 310.68 C 141.357 311.168 140.656 311.836 140.128 312.635 C 140.066 312.746 140.015 312.862 139.975 312.983 L 133.78 312.983 C 132.384 312.284 131.09 311.398 129.934 310.349 Z" fill="#00bfd8" style="stroke-width: 0.267823; vector-effect: non-scaling-stroke;" transform="matrix(0.9999999999999999, 0, 0, 0.9999999999999999, -111.89836852009444, 1.963153613812466)"/>
  <ellipse cx="1029.83" cy="754.12" rx="26.93" ry="4.55" fill="#00bfd8" opacity="0.1" transform="matrix(0.4240520596504211, 0, 0, 0.4240520596504211, -105.71576325352333, 10.497439159161587)" style="stroke-width: 0.267823; vector-effect: non-scaling-stroke;"/>
  <path d="M1042.91,753.11s15.36-.47,20-3.77,23.62-7.23,24.77-1.94,23.09,26.29,5.74,26.43-40.29-2.7-44.91-5.52S1042.91,753.11,1042.91,753.11Z" transform="matrix(0.4240520596504211, 0, 0, 0.4240520596504211, -118.92922560627602, 1.9570353949323192)" fill="#a8a8a8" style="stroke-width: 0.267823; vector-effect: non-scaling-stroke;"/>
  <path d="M1093.72,772c-17.34.14-40.29-2.7-44.91-5.52-3.52-2.14-4.92-9.83-5.39-13.38l-.51,0s1,12.39,5.59,15.2,27.57,5.66,44.91,5.52c5,0,6.74-1.82,6.64-4.46C1099.36,771,1097.45,772,1093.72,772Z" transform="matrix(0.4240520596504211, 0, 0, 0.4240520596504211, -118.92922560627602, 1.9570353949323192)" opacity="0.2" style="stroke-width: 0.267823; vector-effect: non-scaling-stroke;"/>
</svg>